<svg width="298" height="291" viewBox="0 0 298 291" fill="none" xmlns="http://www.w3.org/2000/svg">
<g opacity="0.3">
<path d="M169.041 281.26C169.141 280.74 169.461 268.9 167.891 259.79C166.321 250.68 165.591 250.78 163.911 244.92C162.231 239.06 161.501 237.07 159.931 233.61C158.361 230.15 154.801 225.44 152.181 221.36C149.561 217.28 147.051 215.08 144.741 211.83C142.431 208.58 138.351 204.92 136.051 202.2C133.751 199.48 132.071 197.17 130.291 193.72C128.511 190.26 127.881 187.44 127.781 184.4C127.681 181.36 127.991 179.69 128.411 177.07C128.831 174.45 130.301 170.05 131.761 165.03C133.221 160.01 133.961 160.84 133.961 160.84C133.961 160.84 135.111 159.79 136.891 160.11C138.671 160.43 141.501 162 141.501 162C141.501 162 146.531 165.67 151.451 168.81C156.371 171.95 157.111 171.01 161.291 172.48C165.481 173.95 171.131 174.47 175.221 175.31C179.311 176.15 185.801 180.13 191.771 184.32C197.741 188.51 205.361 199.64 205.361 199.64C205.361 199.64 216.281 229.57 221.301 242.45C221.301 242.45 230.871 255.97 231.951 255.91" stroke="black" stroke-width="4" stroke-miterlimit="10"/>
<path d="M177.32 184.28C177.32 184.28 179.05 184.59 178.11 190.25C177.17 195.91 175.91 199.05 174.5 208C173.09 216.95 171.67 219.94 172.46 226.38C173.25 232.82 175.32 235.18 175.32 235.18C175.32 235.18 179.06 237.07 183.77 235.18C188.48 233.29 191.15 233.61 193.82 229.37C196.49 225.13 200.89 214.76 200.89 214.76C200.89 214.76 204.5 206.28 204.5 205.02" stroke="black" stroke-width="4" stroke-miterlimit="10"/>
<path d="M41.9502 55.3999C41.9502 55.3999 48.1802 72.5299 52.5802 83.6399C56.9802 94.7499 58.0302 98.5099 64.9402 103.75C71.8502 108.99 79.3902 116.11 83.1602 120.09C86.9302 124.07 95.5202 134.79 95.5202 134.79C95.5202 134.79 98.0302 140.2 101.8 145.85C105.57 151.51 107.46 154.44 109.55 157.16C111.64 159.88 114.58 161.77 114.79 163.65C115 165.54 115.16 166.74 113.27 167.58C113.27 167.58 112.8 168.42 110.81 167.84C108.82 167.26 101.18 160.03 101.18 160.03C99.5002 157.58 93.8502 150.24 93.8502 150.24C93.8502 150.24 91.7602 146.05 89.2402 145.42C86.7302 144.79 85.8902 143.95 85.0502 146.47C84.2102 148.98 84.0002 150.03 84.8402 156.1C85.6802 162.17 88.2402 176.18 89.9702 180.58C91.7002 184.98 93.5802 189.3 93.9002 190.56C94.2102 191.82 96.8802 195.51 97.5902 196.69C98.3002 197.87 102.77 206.43 103.87 210.04C104.97 213.65 105.76 214.12 105.44 215.38C105.13 216.64 105.05 217.42 104.18 217.74C103.32 218.05 103.32 218.68 101.27 216.8C99.2302 214.91 98.6802 214.68 96.5602 211.69C94.4402 208.7 90.8302 202.26 90.8302 202.26C90.8302 202.26 89.3402 199.04 88.9402 198.49C88.5402 197.94 85.6402 194.56 84.4602 193.31C83.2802 192.06 81.4802 190.01 81.4802 190.01C81.4802 190.01 81.0102 190.01 80.3002 187.81C79.5902 185.61 77.7902 178.62 76.3702 176.03C74.9602 173.44 70.7102 164.8 70.7102 164.8" stroke="black" stroke-width="4" stroke-miterlimit="10"/>
<path d="M87.3008 170.11C87.3008 170.11 93.2208 177.26 94.4708 178.73C94.9008 179.23 95.4808 179.86 96.0708 180.48C97.2108 181.68 98.3508 182.82 98.3508 182.82C98.3508 182.82 99.8208 183.87 103.061 185.44C106.311 187.01 108.921 187.22 112.901 189.84C116.881 192.46 119.291 194.34 119.711 195.18C120.131 196.02 121.071 198.22 119.711 198.74C118.351 199.26 116.911 199.05 114.911 198.32C112.901 197.59 103.371 194.24 102.431 193.5C101.491 192.77 100.441 193.4 98.0308 192.45C95.6208 191.51 93.8908 190.56 93.8908 190.56" stroke="black" stroke-width="4" stroke-miterlimit="10"/>
<path d="M86.4805 165.92C86.4805 165.92 89.7605 167.32 93.5305 169.62C97.3005 171.92 98.9805 172.34 98.9805 172.34C98.9805 172.34 100.48 173.49 103.86 173.81C107.25 174.12 107.88 174.02 110.6 174.75C113.32 175.48 115.21 175.59 116.05 176.95C116.89 178.31 118.67 179.46 118.14 180.82C117.62 182.18 117.62 183.54 113.22 183.23C108.82 182.92 103.59 182.39 100.76 181.87C97.9305 181.35 96.0705 180.47 96.0705 180.47" stroke="black" stroke-width="4" stroke-miterlimit="10"/>
<path d="M85.2207 158.66C85.2207 158.66 86.7207 159.98 89.3407 162.29C91.9607 164.59 93.3207 165.22 93.3207 165.22C93.3207 165.22 98.0307 166.69 100.861 168.26C103.691 169.83 104.731 170.67 105.471 171.4C106.211 172.13 106.371 174.02 106.371 174.02" stroke="black" stroke-width="4" stroke-miterlimit="10"/>
<path d="M23.3604 84.5898C23.3604 84.5898 25.0404 89.0898 32.5804 97.9898C40.1204 106.89 44.0004 112.13 48.6104 118.3C53.2204 124.47 58.0404 135.37 58.0404 135.37C58.0404 135.37 64.1104 150.45 65.3704 154.01C66.6304 157.57 66.8403 161.24 68.2003 163.23C69.5603 165.22 72.3604 170.06 74.4604 172.29" stroke="black" stroke-width="4" stroke-miterlimit="10"/>
<path d="M131.761 164.41C131.761 165.43 134.571 165.68 136.741 165.17C138.931 164.66 140.801 162.62 140.801 161.6C140.801 160.58 137.311 159.27 135.061 159.27C132.811 159.27 131.761 163.39 131.761 164.41Z" fill="black"/>
<path d="M78.1199 65.5601C80.0899 65.5601 81.9099 65.9001 83.5999 66.5801C85.2899 67.2601 86.7599 68.2201 88.0299 69.4501C89.2899 70.6801 90.2799 72.1101 90.9999 73.7401C91.7199 75.3701 92.0699 77.1401 92.0699 79.0401C92.0699 81.1401 91.6399 83.0601 90.7799 84.7901C89.9199 86.5201 88.7699 88.0101 87.3399 89.2701C86.4199 90.0701 85.3799 90.7501 84.1999 91.3001C83.0299 91.8501 81.7999 92.3601 80.5299 92.8301C79.9299 93.0501 79.3399 93.3001 78.7699 93.5801C78.1999 93.8601 77.6799 94.1801 77.2099 94.5401V94.6701C77.5699 94.6201 77.9599 94.6001 78.3799 94.6001C79.3899 94.6001 80.3199 94.7301 81.1999 94.9901C82.0699 95.2501 82.9199 95.5401 83.7499 95.8601C84.5799 96.1801 85.3999 96.4701 86.2299 96.7301C87.0599 96.9901 87.9299 97.1201 88.8499 97.1201C89.8999 97.1201 90.6899 96.9001 91.2299 96.4501C91.7699 96.0001 92.1999 95.2301 92.5399 94.1401H93.3799C93.4199 94.3401 93.4599 94.5601 93.4799 94.8101C93.4999 95.0601 93.5099 95.3001 93.5099 95.5501C93.5099 96.4901 93.2499 97.3301 92.7399 98.0601C92.2299 98.8001 91.5299 99.3801 90.6399 99.8001C89.7599 100.22 88.7599 100.44 87.6399 100.44C86.6599 100.44 85.7199 100.28 84.8399 99.9701C83.9599 99.6601 83.1199 99.2701 82.3299 98.8101C81.5399 98.3501 80.7699 97.9001 80.0299 97.4501C79.2899 97.0001 78.5799 96.6201 77.8799 96.3101C77.1899 96.0001 76.5099 95.8401 75.8299 95.8401C75.2499 95.8401 74.7699 95.9501 74.3999 96.1801C74.0299 96.4001 73.7099 96.6501 73.4399 96.9301C73.1699 97.2101 72.8999 97.4601 72.6399 97.6801C72.3699 97.9001 72.0499 98.0201 71.6699 98.0201C71.0199 98.0201 70.6999 97.7401 70.6999 97.1801C70.6999 96.9801 70.7399 96.8001 70.8299 96.6401C70.9199 96.4801 71.1199 96.2901 71.4299 96.0701C71.7399 95.8501 72.2299 95.5401 72.9099 95.1601L77.2699 92.6801C75.3899 92.6101 73.6499 92.2201 72.0599 91.5101C70.4599 90.7901 69.0699 89.8201 67.8899 88.5801C66.6999 87.3401 65.7899 85.9101 65.1399 84.2901C64.4899 82.6701 64.1699 80.9401 64.1699 79.1101C64.1699 77.1901 64.5299 75.4001 65.2399 73.7601C65.9599 72.1201 66.9399 70.6801 68.2099 69.4501C69.4699 68.2201 70.9499 67.2701 72.6399 66.5801C74.3299 65.9001 76.1499 65.5601 78.1199 65.5601ZM78.1199 91.0401C80.0899 91.0401 81.7899 90.5501 83.2199 89.5801C84.6499 88.6101 85.7599 87.2301 86.5399 85.4401C87.3199 83.6501 87.7099 81.5401 87.7099 79.1001C87.7099 76.7101 87.3199 74.6301 86.5399 72.8801C85.7599 71.1301 84.6499 69.7701 83.2199 68.8201C81.7899 67.8701 80.0899 67.3901 78.1199 67.3901C76.1499 67.3901 74.4499 67.8701 73.0199 68.8201C71.5899 69.7701 70.4799 71.1201 69.6999 72.8801C68.9199 74.6401 68.5299 76.7101 68.5299 79.1001C68.5299 81.5401 68.9199 83.6501 69.6999 85.4401C70.4799 87.2301 71.5899 88.6101 73.0199 89.5801C74.4499 90.5501 76.1499 91.0401 78.1199 91.0401Z" fill="black"/>
<path d="M109.54 82.5899V79.2999C109.54 78.0699 109.49 77.1799 109.39 76.6199C109.29 76.0599 109.04 75.6899 108.65 75.5099C108.26 75.3299 107.63 75.1999 106.76 75.1099V73.9399H112.83V84.2299C112.83 86.7099 112.9 88.3499 113.03 89.1599C113.14 89.7199 113.37 90.0799 113.7 90.2499C114.04 90.4199 114.72 90.4999 115.75 90.4999V91.6699L110.22 92.0699L109.85 88.0499H109.72C108.87 89.4099 107.89 90.4199 106.79 91.0699C105.68 91.7199 104.53 92.0399 103.32 92.0399C102.38 92.0399 101.47 91.8599 100.59 91.4999C99.7102 91.1399 99.0402 90.6599 98.5902 90.0599C97.8702 89.1199 97.5202 87.3099 97.5202 84.6299V79.2999C97.5202 78.0699 97.4702 77.1799 97.3702 76.6199C97.2702 76.0599 97.0202 75.6899 96.6302 75.4999C96.2402 75.3099 95.6102 75.1799 94.7402 75.1099V73.9399H100.81V83.0899C100.81 85.4999 101.1 87.2599 101.68 88.3699C102.26 89.4799 103.17 90.0299 104.4 90.0299C106.37 90.0299 107.9 88.7399 108.99 86.1699C109.21 85.6599 109.36 85.1699 109.44 84.7099C109.5 84.2599 109.54 83.5499 109.54 82.5899Z" fill="black"/>
<path d="M132.95 87.6498L133.99 88.5898C132.09 90.8898 129.73 92.0398 126.91 92.0398C125.17 92.0398 123.63 91.6598 122.32 90.8998C121 90.1398 119.97 89.0799 119.24 87.7299C118.5 86.3799 118.13 84.8098 118.13 83.0198C118.13 81.1898 118.52 79.5598 119.3 78.1398C120.08 76.7198 121.16 75.6099 122.54 74.7999C123.91 73.9999 125.51 73.5898 127.32 73.5898C129.47 73.5898 131.14 74.1798 132.33 75.3498C133.53 76.5198 134.12 78.2098 134.12 80.3998C134.12 80.6898 134.06 80.8798 133.94 80.9498C133.82 81.0298 133.53 81.0698 133.08 81.0698H122.05C122 81.2498 121.97 81.4698 121.95 81.7198C121.93 81.9798 121.92 82.2598 121.92 82.5798C121.92 84.1198 122.17 85.4798 122.66 86.6398C123.15 87.7998 123.84 88.6998 124.74 89.3398C125.63 89.9798 126.67 90.2999 127.86 90.2999C128.78 90.2999 129.65 90.0899 130.48 89.6599C131.29 89.2399 132.12 88.5698 132.95 87.6498ZM122.28 79.5398H128.45C129.37 79.5398 129.93 79.4799 130.14 79.3699C130.35 79.2599 130.46 78.9998 130.46 78.5998C130.46 77.5698 130.12 76.7498 129.45 76.1398C128.78 75.5298 127.88 75.2198 126.77 75.2198C124.36 75.2098 122.86 76.6598 122.28 79.5398Z" fill="black"/>
<path d="M143.14 85.2401V86.3801C143.14 87.6101 143.19 88.5101 143.29 89.0801C143.39 89.6501 143.64 90.0201 144.03 90.1901C144.42 90.3601 145.04 90.4801 145.89 90.5401V91.7101H136.97V90.5401C137.84 90.5001 138.48 90.3801 138.88 90.2001C139.28 90.0201 139.54 89.6601 139.67 89.1101C139.79 88.5601 139.85 87.7301 139.85 86.6101V82.6901C139.85 81.1701 139.83 79.9801 139.78 79.1201C139.73 78.2601 139.62 77.6401 139.44 77.2601C139.26 76.8801 138.97 76.6501 138.57 76.5601C138.17 76.4701 137.61 76.4301 136.89 76.4301V75.2601L142.76 73.9901L143.23 78.1501H143.36C143.96 76.8101 144.8 75.7201 145.87 74.8801C146.94 74.0401 148.05 73.6201 149.19 73.6201C149.91 73.6201 150.47 73.7901 150.88 74.1401C151.29 74.4901 151.5 74.9501 151.5 75.5301C151.5 76.6701 150.85 77.2401 149.56 77.2401C149.09 77.2401 148.71 77.1701 148.42 77.0201C148.13 76.8701 147.87 76.7301 147.65 76.6001C147.43 76.4701 147.18 76.4001 146.91 76.4001C146.31 76.4001 145.7 76.7901 145.1 77.5601C144.5 78.3301 144.03 79.3101 143.69 80.4901C143.33 81.8001 143.14 83.3801 143.14 85.2401Z" fill="black"/>
<path d="M167.28 87.9601L168.29 88.9301C167.49 89.8901 166.45 90.6501 165.17 91.2101C163.9 91.7701 162.52 92.0501 161.05 92.0501C159.46 92.0501 158.06 91.6701 156.84 90.9101C155.62 90.1501 154.67 89.0901 153.99 87.7201C153.31 86.3601 152.97 84.7701 152.97 82.9601C152.97 81.0601 153.36 79.4101 154.14 78.0101C154.92 76.6101 156.01 75.5301 157.41 74.7601C158.81 73.9901 160.43 73.6001 162.29 73.6001C164.01 73.6001 165.43 73.8701 166.53 74.4201C167.64 74.9701 168.19 75.6801 168.19 76.5501C168.19 76.9701 168.04 77.3201 167.75 77.5701C167.46 77.8301 167.06 77.9601 166.54 77.9601C166.14 77.9601 165.8 77.8701 165.53 77.6901C165.26 77.5101 164.91 77.1401 164.49 76.5801C164.07 76.0701 163.64 75.7001 163.22 75.4901C162.8 75.2801 162.26 75.1701 161.61 75.1701C160.04 75.1701 158.85 75.7901 158.02 77.0101C157.19 78.2401 156.78 80.0501 156.78 82.4401C156.78 84.9901 157.24 86.9301 158.15 88.2701C159.07 89.6101 160.39 90.2801 162.11 90.2801C163.03 90.2801 163.91 90.1001 164.76 89.7301C165.62 89.3801 166.46 88.7801 167.28 87.9601Z" fill="black"/>
<path d="M186.03 80.7099L178.72 96.9699C177.69 99.2699 176.09 100.42 173.92 100.42C172.51 100.42 171.81 99.8899 171.81 98.8399C171.81 98.2799 172.01 97.8699 172.4 97.5999C172.79 97.3299 173.51 97.1199 174.56 96.9599C175.48 96.7999 176.17 96.5499 176.66 96.1899C177.14 95.8299 177.59 95.2399 178.02 94.4099L179.19 92.0599L172.75 78.0799C172.37 77.2499 172.04 76.6299 171.76 76.2199C171.48 75.8099 171.17 75.5299 170.84 75.3799C170.5 75.2299 170.04 75.1399 169.43 75.0899V73.9199H178.32V75.0899C176.82 75.0899 176.07 75.4599 176.07 76.1999C176.07 76.4899 176.16 76.9499 176.34 77.5699C176.52 78.1999 176.74 78.8299 177.01 79.4799L180.7 88.3999H180.87L183.92 80.8599C184.32 79.8799 184.62 79.1199 184.83 78.5999C185.03 78.0799 185.17 77.6699 185.23 77.3799C185.3 77.0899 185.33 76.8199 185.33 76.5799C185.33 75.9999 185.17 75.6099 184.84 75.4099C184.52 75.2099 183.9 75.1099 182.98 75.1099V73.9399H190.36V75.1099C189.93 75.1099 189.57 75.1699 189.27 75.2899C188.97 75.4099 188.67 75.6599 188.38 76.0299C188.09 76.3999 187.76 76.9599 187.39 77.7099C187.02 78.4599 186.56 79.4599 186.03 80.7099Z" fill="black"/>
<path d="M97.97 111.73L103.94 126.82L109.84 112.27C110.18 111.44 110.41 110.79 110.54 110.31C110.67 109.83 110.74 109.41 110.74 109.05C110.74 108.45 110.55 108.02 110.17 107.78C109.79 107.53 109.11 107.41 108.12 107.41V106.14H116.27V107.41C115.24 107.52 114.47 107.77 113.96 108.15C113.45 108.53 113 109.19 112.62 110.13L103.53 132.29H102.36L93.71 111.4C93.15 110.04 92.57 109.05 91.97 108.45C91.37 107.85 90.47 107.51 89.29 107.44V106.13H100.22V107.44C98.99 107.44 98.17 107.56 97.77 107.79C97.37 108.02 97.17 108.38 97.17 108.85C97.17 109.16 97.23 109.53 97.35 109.94C97.47 110.35 97.68 110.95 97.97 111.73Z" fill="black"/>
<path d="M129.66 127.89L130.7 128.83C128.8 131.13 126.44 132.28 123.62 132.28C121.88 132.28 120.34 131.9 119.03 131.14C117.71 130.38 116.68 129.32 115.95 127.97C115.21 126.62 114.84 125.05 114.84 123.26C114.84 121.43 115.23 119.8 116.01 118.38C116.79 116.96 117.87 115.85 119.25 115.04C120.62 114.24 122.22 113.83 124.03 113.83C126.18 113.83 127.85 114.42 129.04 115.59C130.24 116.76 130.83 118.45 130.83 120.64C130.83 120.93 130.77 121.12 130.65 121.19C130.53 121.27 130.24 121.31 129.79 121.31H118.76C118.71 121.49 118.68 121.71 118.66 121.96C118.64 122.22 118.63 122.5 118.63 122.82C118.63 124.36 118.88 125.72 119.37 126.88C119.86 128.04 120.55 128.94 121.45 129.58C122.34 130.22 123.38 130.54 124.57 130.54C125.49 130.54 126.36 130.33 127.19 129.9C128 129.48 128.83 128.81 129.66 127.89ZM119 119.78H125.17C126.09 119.78 126.65 119.72 126.86 119.61C127.07 119.5 127.18 119.24 127.18 118.84C127.18 117.81 126.84 116.99 126.17 116.38C125.5 115.77 124.6 115.46 123.49 115.46C121.07 115.45 119.58 116.89 119 119.78ZM123.12 110.12H121.54L125.9 106.13C126.7 105.39 127.45 105.02 128.15 105.02C128.53 105.02 128.84 105.12 129.07 105.32C129.3 105.52 129.42 105.81 129.42 106.19C129.42 106.55 129.27 106.87 128.97 107.15C128.67 107.43 128.25 107.69 127.71 107.94L123.12 110.12Z" fill="black"/>
<path d="M135.76 116.29H133.75V115.05C134.93 114.33 135.86 113.64 136.53 112.95C137.2 112.27 137.71 111.45 138.07 110.49H139.04V114.72H143.53V116.3H139.04V126.49C139.04 128.06 139.2 129.14 139.53 129.74C139.85 130.34 140.46 130.65 141.36 130.65C141.92 130.65 142.4 130.53 142.8 130.3C143.2 130.07 143.58 129.67 143.94 129.11L144.78 129.75C144.13 131.45 142.63 132.3 140.29 132.3C138.81 132.3 137.69 131.94 136.92 131.23C136.15 130.51 135.76 129.51 135.76 128.21V116.29Z" fill="black"/>
<path d="M161.549 127.89L162.589 128.83C160.689 131.13 158.329 132.28 155.509 132.28C153.769 132.28 152.229 131.9 150.919 131.14C149.599 130.38 148.569 129.32 147.839 127.97C147.099 126.62 146.729 125.05 146.729 123.26C146.729 121.43 147.119 119.8 147.899 118.38C148.679 116.96 149.759 115.85 151.139 115.04C152.509 114.24 154.109 113.83 155.919 113.83C158.069 113.83 159.739 114.42 160.929 115.59C162.129 116.76 162.719 118.45 162.719 120.64C162.719 120.93 162.659 121.12 162.539 121.19C162.419 121.27 162.129 121.31 161.679 121.31H150.649C150.599 121.49 150.569 121.71 150.549 121.96C150.529 122.22 150.52 122.5 150.52 122.82C150.52 124.36 150.769 125.72 151.259 126.88C151.749 128.04 152.439 128.94 153.339 129.58C154.229 130.22 155.27 130.54 156.46 130.54C157.38 130.54 158.249 130.33 159.079 129.9C159.889 129.48 160.719 128.81 161.549 127.89ZM150.88 119.78H157.049C157.969 119.78 158.53 119.72 158.74 119.61C158.95 119.5 159.059 119.24 159.059 118.84C159.059 117.81 158.719 116.99 158.049 116.38C157.379 115.77 156.479 115.46 155.369 115.46C152.959 115.45 151.47 116.89 150.88 119.78ZM155.009 110.12H153.429L157.789 106.13C158.589 105.39 159.339 105.02 160.039 105.02C160.419 105.02 160.73 105.12 160.96 105.32C161.19 105.52 161.309 105.81 161.309 106.19C161.309 106.55 161.159 106.87 160.859 107.15C160.559 107.43 160.14 107.69 159.6 107.94L155.009 110.12Z" fill="black"/>
<path d="M171.74 125.48V126.62C171.74 127.85 171.79 128.75 171.89 129.32C171.99 129.89 172.24 130.26 172.63 130.43C173.02 130.6 173.64 130.72 174.49 130.78V131.95H165.57V130.78C166.44 130.74 167.08 130.62 167.48 130.44C167.88 130.26 168.14 129.9 168.27 129.35C168.39 128.8 168.45 127.97 168.45 126.85V122.93C168.45 121.41 168.43 120.22 168.38 119.36C168.34 118.5 168.22 117.88 168.04 117.5C167.86 117.12 167.57 116.89 167.17 116.8C166.77 116.71 166.21 116.67 165.49 116.67V115.5L171.36 114.23L171.83 118.39H171.96C172.56 117.05 173.4 115.96 174.47 115.12C175.54 114.28 176.65 113.86 177.79 113.86C178.51 113.86 179.07 114.03 179.48 114.38C179.89 114.73 180.1 115.19 180.1 115.77C180.1 116.91 179.45 117.48 178.16 117.48C177.69 117.48 177.31 117.41 177.02 117.26C176.73 117.11 176.47 116.97 176.25 116.84C176.03 116.71 175.78 116.64 175.51 116.64C174.91 116.64 174.3 117.03 173.7 117.8C173.1 118.57 172.63 119.55 172.29 120.73C171.93 122.04 171.74 123.62 171.74 125.48Z" fill="black"/>
<path d="M187.94 113.84V126.62C187.94 127.76 188.02 128.63 188.17 129.22C188.33 129.81 188.63 130.21 189.08 130.41C189.53 130.61 190.19 130.73 191.06 130.78V131.95H181.44V130.78C182.36 130.74 183.04 130.61 183.5 130.39C183.96 130.18 184.27 129.8 184.42 129.25C184.58 128.7 184.65 127.9 184.65 126.85V122.56C184.65 121.26 184.63 120.19 184.6 119.34C184.57 118.49 184.5 117.92 184.42 117.63C184.33 117.12 184.08 116.76 183.67 116.57C183.26 116.38 182.49 116.28 181.37 116.28V115.11L187.94 113.84ZM184.08 107.04C184.08 106.46 184.28 105.97 184.68 105.56C185.08 105.16 185.57 104.96 186.16 104.96C186.74 104.96 187.23 105.16 187.64 105.56C188.04 105.96 188.24 106.45 188.24 107.04C188.24 107.62 188.04 108.11 187.64 108.52C187.24 108.92 186.75 109.12 186.16 109.12C185.58 109.12 185.09 108.92 184.68 108.52C184.28 108.11 184.08 107.62 184.08 107.04Z" fill="black"/>
<path d="M198.97 122.19V126.68C198.97 127.89 199.02 128.77 199.12 129.33C199.22 129.89 199.47 130.26 199.87 130.44C200.27 130.62 200.9 130.74 201.75 130.81V131.95H192.96V130.81C193.79 130.74 194.4 130.63 194.8 130.46C195.2 130.29 195.46 129.94 195.59 129.4C195.71 128.86 195.77 128.04 195.77 126.92V122.46C195.77 119.78 195.7 118.16 195.57 117.6C195.44 117 195.2 116.61 194.87 116.44C194.53 116.27 193.87 116.19 192.89 116.19V115.12L198.26 113.85L198.66 117.17H198.79C199.64 116.12 200.64 115.3 201.79 114.72C202.94 114.14 204.18 113.85 205.5 113.85C206.53 113.85 207.47 114.02 208.32 114.35C209.17 114.69 209.82 115.14 210.26 115.72C210.64 116.23 210.91 116.9 211.06 117.72C211.22 118.54 211.29 119.66 211.29 121.09V126.69C211.29 127.9 211.35 128.78 211.46 129.34C211.57 129.9 211.82 130.27 212.21 130.45C212.6 130.63 213.2 130.75 214 130.82V131.96H205.32V130.82C206.17 130.78 206.79 130.66 207.18 130.48C207.57 130.3 207.82 129.94 207.93 129.39C208.04 128.84 208.1 128.02 208.1 126.93V122.5C208.1 119.97 207.81 118.2 207.23 117.19C206.65 116.17 205.66 115.66 204.28 115.66C203.3 115.66 202.38 115.92 201.53 116.45C200.68 116.98 200.02 117.7 199.55 118.61C199.39 118.9 199.27 119.19 199.18 119.47C199.09 119.75 199.03 120.1 199 120.51C198.99 120.91 198.97 121.48 198.97 122.19Z" fill="black"/>
<path d="M221.7 122.7L226.53 120.59V119.22C226.53 117.81 226.24 116.78 225.67 116.12C225.1 115.46 224.2 115.13 222.97 115.13C222.25 115.13 221.73 115.28 221.41 115.57C221.09 115.86 220.78 116.44 220.49 117.31C220.24 117.94 220 118.36 219.77 118.58C219.54 118.8 219.19 118.92 218.75 118.92C217.63 118.92 217.07 118.36 217.07 117.24C217.07 116.17 217.64 115.33 218.78 114.74C219.92 114.15 221.54 113.85 223.64 113.85C225.9 113.85 227.49 114.24 228.42 115.02C229.35 115.8 229.81 117.16 229.81 119.08V126.59C229.81 127.98 229.94 128.96 230.21 129.54C230.48 130.12 230.9 130.41 231.48 130.41C231.7 130.41 231.97 130.36 232.27 130.26C232.57 130.16 232.8 129.96 232.96 129.67L233.43 130.47C233.16 130.98 232.67 131.41 231.95 131.76C231.23 132.11 230.49 132.28 229.7 132.28C228.74 132.28 228.01 131.97 227.52 131.34C227.03 130.71 226.78 129.83 226.78 128.69H226.61C226.01 129.79 225.19 130.65 224.16 131.29C223.13 131.93 221.99 132.25 220.74 132.25C219.38 132.25 218.29 131.89 217.47 131.16C216.65 130.43 216.25 129.47 216.25 128.26C216.25 127.21 216.64 126.24 217.42 125.36C218.23 124.48 219.65 123.59 221.7 122.7ZM226.53 124.67V122.02C223.96 122.98 222.17 123.93 221.16 124.85C220.15 125.78 219.65 126.72 219.65 127.68C219.65 128.44 219.9 129.05 220.39 129.52C220.88 129.99 221.51 130.22 222.27 130.22C223.07 130.22 223.8 129.97 224.45 129.47C225.1 128.97 225.61 128.29 225.98 127.44C226.35 126.61 226.53 125.68 226.53 124.67Z" fill="black"/>
<path d="M241.049 113.84V126.62C241.049 127.76 241.129 128.63 241.279 129.22C241.439 129.81 241.739 130.21 242.189 130.41C242.639 130.61 243.299 130.73 244.169 130.78V131.95H234.549V130.78C235.469 130.74 236.149 130.61 236.609 130.39C237.069 130.18 237.379 129.8 237.529 129.25C237.689 128.7 237.759 127.9 237.759 126.85V122.56C237.759 121.26 237.74 120.19 237.71 119.34C237.68 118.49 237.609 117.92 237.529 117.63C237.439 117.12 237.189 116.76 236.779 116.57C236.369 116.38 235.599 116.28 234.479 116.28V115.11L241.049 113.84ZM237.199 107.04C237.199 106.46 237.399 105.97 237.799 105.56C238.199 105.16 238.689 104.96 239.279 104.96C239.859 104.96 240.349 105.16 240.759 105.56C241.159 105.96 241.359 106.45 241.359 107.04C241.359 107.62 241.159 108.11 240.759 108.52C240.359 108.92 239.869 109.12 239.279 109.12C238.699 109.12 238.209 108.92 237.799 108.52C237.399 108.11 237.199 107.62 237.199 107.04Z" fill="black"/>
<path d="M252.28 125.48V126.62C252.28 127.85 252.33 128.75 252.43 129.32C252.53 129.89 252.78 130.26 253.17 130.43C253.56 130.6 254.18 130.72 255.03 130.78V131.95H246.11V130.78C246.98 130.74 247.62 130.62 248.02 130.44C248.42 130.26 248.68 129.9 248.81 129.35C248.93 128.8 248.99 127.97 248.99 126.85V122.93C248.99 121.41 248.97 120.22 248.92 119.36C248.88 118.5 248.76 117.88 248.58 117.5C248.4 117.12 248.11 116.89 247.71 116.8C247.31 116.71 246.75 116.67 246.03 116.67V115.5L251.9 114.23L252.37 118.39H252.5C253.1 117.05 253.94 115.96 255.01 115.12C256.08 114.28 257.19 113.86 258.33 113.86C259.05 113.86 259.61 114.03 260.02 114.38C260.43 114.73 260.64 115.19 260.64 115.77C260.64 116.91 259.99 117.48 258.7 117.48C258.23 117.48 257.85 117.41 257.56 117.26C257.27 117.11 257.01 116.97 256.79 116.84C256.57 116.71 256.32 116.64 256.05 116.64C255.45 116.64 254.84 117.03 254.24 117.8C253.64 118.57 253.17 119.55 252.83 120.73C252.47 122.04 252.28 123.62 252.28 125.48Z" fill="black"/>
<path d="M276.93 127.89L277.97 128.83C276.07 131.13 273.71 132.28 270.89 132.28C269.15 132.28 267.61 131.9 266.3 131.14C264.98 130.38 263.95 129.32 263.22 127.97C262.48 126.62 262.11 125.05 262.11 123.26C262.11 121.43 262.5 119.8 263.28 118.38C264.06 116.96 265.14 115.85 266.52 115.04C267.89 114.24 269.49 113.83 271.3 113.83C273.45 113.83 275.12 114.42 276.31 115.59C277.51 116.76 278.1 118.45 278.1 120.64C278.1 120.93 278.04 121.12 277.92 121.19C277.8 121.27 277.51 121.31 277.06 121.31H266.03C265.98 121.49 265.95 121.71 265.93 121.96C265.91 122.22 265.9 122.5 265.9 122.82C265.9 124.36 266.15 125.72 266.64 126.88C267.13 128.04 267.82 128.94 268.72 129.58C269.61 130.22 270.65 130.54 271.84 130.54C272.76 130.54 273.63 130.33 274.46 129.9C275.28 129.48 276.1 128.81 276.93 127.89ZM266.27 119.78H272.44C273.36 119.78 273.92 119.72 274.13 119.61C274.34 119.5 274.45 119.24 274.45 118.84C274.45 117.81 274.11 116.99 273.44 116.38C272.77 115.77 271.87 115.46 270.76 115.46C268.35 115.45 266.85 116.89 266.27 119.78Z" fill="black"/>
<path d="M288.27 144.07C288.27 67.24 225.99 4.95996 149.16 4.95996C72.33 4.95996 10.04 67.24 10.04 144.07C10.04 220.9 72.32 283.18 149.15 283.18C180.17 283.18 208.81 273.03 231.94 255.87C266.12 230.52 288.27 189.88 288.27 144.07Z" stroke="black" stroke-width="5" stroke-miterlimit="10"/>
</g>
<path d="M169.041 281.26C169.141 280.74 169.461 268.9 167.891 259.79C166.321 250.68 165.591 250.78 163.911 244.92C162.231 239.06 161.501 237.07 159.931 233.61C158.361 230.15 154.801 225.44 152.181 221.36C149.561 217.28 147.051 215.08 144.741 211.83C142.431 208.58 138.351 204.92 136.051 202.2C133.751 199.48 132.071 197.17 130.291 193.72C128.511 190.26 127.881 187.44 127.781 184.4C127.681 181.36 127.991 179.69 128.411 177.07C128.831 174.45 130.301 170.05 131.761 165.03C133.221 160.01 133.961 160.84 133.961 160.84C133.961 160.84 135.111 159.79 136.891 160.11C138.671 160.43 141.501 162 141.501 162C141.501 162 146.531 165.67 151.451 168.81C156.371 171.95 157.111 171.01 161.291 172.48C165.481 173.95 171.131 174.47 175.221 175.31C179.311 176.15 185.801 180.13 191.771 184.32C197.741 188.51 205.361 199.64 205.361 199.64C205.361 199.64 216.281 229.57 221.301 242.45C221.301 242.45 230.871 255.97 231.951 255.91" stroke="white" stroke-width="2" stroke-miterlimit="10"/>
<path d="M177.32 184.28C177.32 184.28 179.05 184.59 178.11 190.25C177.17 195.91 175.91 199.05 174.5 208C173.09 216.95 171.67 219.94 172.46 226.38C173.25 232.82 175.32 235.18 175.32 235.18C175.32 235.18 179.06 237.07 183.77 235.18C188.48 233.29 191.15 233.61 193.82 229.37C196.49 225.13 200.89 214.76 200.89 214.76C200.89 214.76 204.5 206.28 204.5 205.02" stroke="white" stroke-width="2" stroke-miterlimit="10"/>
<path d="M41.9502 55.3999C41.9502 55.3999 48.1802 72.5299 52.5802 83.6399C56.9802 94.7499 58.0302 98.5099 64.9402 103.75C71.8502 108.99 79.3902 116.11 83.1602 120.09C86.9302 124.07 95.5202 134.79 95.5202 134.79C95.5202 134.79 98.0302 140.2 101.8 145.85C105.57 151.51 107.46 154.44 109.55 157.16C111.64 159.88 114.58 161.77 114.79 163.65C115 165.54 115.16 166.74 113.27 167.58C113.27 167.58 112.8 168.42 110.81 167.84C108.82 167.26 101.18 160.03 101.18 160.03C99.5002 157.58 93.8502 150.24 93.8502 150.24C93.8502 150.24 91.7602 146.05 89.2402 145.42C86.7302 144.79 85.8902 143.95 85.0502 146.47C84.2102 148.98 84.0002 150.03 84.8402 156.1C85.6802 162.17 88.2402 176.18 89.9702 180.58C91.7002 184.98 93.5802 189.3 93.9002 190.56C94.2102 191.82 96.8802 195.51 97.5902 196.69C98.3002 197.87 102.77 206.43 103.87 210.04C104.97 213.65 105.76 214.12 105.44 215.38C105.13 216.64 105.05 217.42 104.18 217.74C103.32 218.05 103.32 218.68 101.27 216.8C99.2302 214.91 98.6802 214.68 96.5602 211.69C94.4402 208.7 90.8302 202.26 90.8302 202.26C90.8302 202.26 89.3402 199.04 88.9402 198.49C88.5402 197.94 85.6402 194.56 84.4602 193.31C83.2802 192.06 81.4802 190.01 81.4802 190.01C81.4802 190.01 81.0102 190.01 80.3002 187.81C79.5902 185.61 77.7902 178.62 76.3702 176.03C74.9602 173.44 70.7102 164.8 70.7102 164.8" stroke="white" stroke-width="2" stroke-miterlimit="10"/>
<path d="M87.3008 170.11C87.3008 170.11 93.2208 177.26 94.4708 178.73C94.9008 179.23 95.4808 179.86 96.0708 180.48C97.2108 181.68 98.3508 182.82 98.3508 182.82C98.3508 182.82 99.8208 183.87 103.061 185.44C106.311 187.01 108.921 187.22 112.901 189.84C116.881 192.46 119.291 194.34 119.711 195.18C120.131 196.02 121.071 198.22 119.711 198.74C118.351 199.26 116.911 199.05 114.911 198.32C112.901 197.59 103.371 194.24 102.431 193.5C101.491 192.77 100.441 193.4 98.0308 192.45C95.6208 191.51 93.8908 190.56 93.8908 190.56" stroke="white" stroke-width="2" stroke-miterlimit="10"/>
<path d="M86.4805 165.92C86.4805 165.92 89.7605 167.32 93.5305 169.62C97.3005 171.92 98.9805 172.34 98.9805 172.34C98.9805 172.34 100.48 173.49 103.86 173.81C107.25 174.12 107.88 174.02 110.6 174.75C113.32 175.48 115.21 175.59 116.05 176.95C116.89 178.31 118.67 179.46 118.14 180.82C117.62 182.18 117.62 183.54 113.22 183.23C108.82 182.92 103.59 182.39 100.76 181.87C97.9305 181.35 96.0705 180.47 96.0705 180.47" stroke="white" stroke-width="2" stroke-miterlimit="10"/>
<path d="M85.2207 158.66C85.2207 158.66 86.7207 159.98 89.3407 162.29C91.9607 164.59 93.3207 165.22 93.3207 165.22C93.3207 165.22 98.0307 166.69 100.861 168.26C103.691 169.83 104.731 170.67 105.471 171.4C106.211 172.13 106.371 174.02 106.371 174.02" stroke="white" stroke-width="2" stroke-miterlimit="10"/>
<path d="M23.3604 84.5898C23.3604 84.5898 25.0404 89.0898 32.5804 97.9898C40.1204 106.89 44.0004 112.13 48.6104 118.3C53.2204 124.47 58.0404 135.37 58.0404 135.37C58.0404 135.37 64.1104 150.45 65.3704 154.01C66.6304 157.57 66.8403 161.24 68.2003 163.23C69.5603 165.22 72.3604 170.06 74.4604 172.29" stroke="white" stroke-width="2" stroke-miterlimit="10"/>
<path d="M131.761 164.41C131.761 165.43 134.571 165.68 136.741 165.17C138.931 164.66 140.801 162.62 140.801 161.6C140.801 160.58 137.311 159.27 135.061 159.27C132.811 159.27 131.761 163.39 131.761 164.41Z" fill="white"/>
<path d="M77.1199 64.5601C79.0899 64.5601 80.9099 64.9001 82.5999 65.5801C84.2899 66.2601 85.7599 67.2201 87.0299 68.4501C88.2899 69.6801 89.2799 71.1101 89.9999 72.7401C90.7199 74.3701 91.0699 76.1401 91.0699 78.0401C91.0699 80.1401 90.6399 82.0601 89.7799 83.7901C88.9199 85.5201 87.7699 87.0101 86.3399 88.2701C85.4199 89.0701 84.3799 89.7501 83.1999 90.3001C82.0299 90.8501 80.7999 91.3601 79.5299 91.8301C78.9299 92.0501 78.3399 92.3001 77.7699 92.5801C77.1999 92.8601 76.6799 93.1801 76.2099 93.5401V93.6701C76.5699 93.6201 76.9599 93.6001 77.3799 93.6001C78.3899 93.6001 79.3199 93.7301 80.1999 93.9901C81.0699 94.2501 81.9199 94.5401 82.7499 94.8601C83.5799 95.1801 84.3999 95.4701 85.2299 95.7301C86.0599 95.9901 86.9299 96.1201 87.8499 96.1201C88.8999 96.1201 89.6899 95.9001 90.2299 95.4501C90.7699 95.0001 91.1999 94.2301 91.5399 93.1401H92.3799C92.4199 93.3401 92.4599 93.5601 92.4799 93.8101C92.4999 94.0601 92.5099 94.3001 92.5099 94.5501C92.5099 95.4901 92.2499 96.3301 91.7399 97.0601C91.2299 97.8001 90.5299 98.3801 89.6399 98.8001C88.7599 99.2201 87.7599 99.4401 86.6399 99.4401C85.6599 99.4401 84.7199 99.2801 83.8399 98.9701C82.9599 98.6601 82.1199 98.2701 81.3299 97.8101C80.5399 97.3501 79.7699 96.9001 79.0299 96.4501C78.2899 96.0001 77.5799 95.6201 76.8799 95.3101C76.1899 95.0001 75.5099 94.8401 74.8299 94.8401C74.2499 94.8401 73.7699 94.9501 73.3999 95.1801C73.0299 95.4001 72.7099 95.6501 72.4399 95.9301C72.1699 96.2101 71.8999 96.4601 71.6399 96.6801C71.3699 96.9001 71.0499 97.0201 70.6699 97.0201C70.0199 97.0201 69.6999 96.7401 69.6999 96.1801C69.6999 95.9801 69.7399 95.8001 69.8299 95.6401C69.9199 95.4801 70.1199 95.2901 70.4299 95.0701C70.7399 94.8501 71.2299 94.5401 71.9099 94.1601L76.2699 91.6801C74.3899 91.6101 72.6499 91.2201 71.0599 90.5101C69.4599 89.7901 68.0699 88.8201 66.8899 87.5801C65.6999 86.3401 64.7899 84.9101 64.1399 83.2901C63.4899 81.6701 63.1699 79.9401 63.1699 78.1101C63.1699 76.1901 63.5299 74.4001 64.2399 72.7601C64.9599 71.1201 65.9399 69.6801 67.2099 68.4501C68.4699 67.2201 69.9499 66.2701 71.6399 65.5801C73.3299 64.9001 75.1499 64.5601 77.1199 64.5601ZM77.1199 90.0401C79.0899 90.0401 80.7899 89.5501 82.2199 88.5801C83.6499 87.6101 84.7599 86.2301 85.5399 84.4401C86.3199 82.6501 86.7099 80.5401 86.7099 78.1001C86.7099 75.7101 86.3199 73.6301 85.5399 71.8801C84.7599 70.1301 83.6499 68.7701 82.2199 67.8201C80.7899 66.8701 79.0899 66.3901 77.1199 66.3901C75.1499 66.3901 73.4499 66.8701 72.0199 67.8201C70.5899 68.7701 69.4799 70.1201 68.6999 71.8801C67.9199 73.6401 67.5299 75.7101 67.5299 78.1001C67.5299 80.5401 67.9199 82.6501 68.6999 84.4401C69.4799 86.2301 70.5899 87.6101 72.0199 88.5801C73.4499 89.5501 75.1499 90.0401 77.1199 90.0401Z" fill="white"/>
<path d="M108.54 81.5899V78.2999C108.54 77.0699 108.49 76.1799 108.39 75.6199C108.29 75.0599 108.04 74.6899 107.65 74.5099C107.26 74.3299 106.63 74.1999 105.76 74.1099V72.9399H111.83V83.2299C111.83 85.7099 111.9 87.3499 112.03 88.1599C112.14 88.7199 112.37 89.0799 112.7 89.2499C113.04 89.4199 113.72 89.4999 114.75 89.4999V90.6699L109.22 91.0699L108.85 87.0499H108.72C107.87 88.4099 106.89 89.4199 105.79 90.0699C104.68 90.7199 103.53 91.0399 102.32 91.0399C101.38 91.0399 100.47 90.8599 99.5902 90.4999C98.7102 90.1399 98.0402 89.6599 97.5902 89.0599C96.8702 88.1199 96.5202 86.3099 96.5202 83.6299V78.2999C96.5202 77.0699 96.4702 76.1799 96.3702 75.6199C96.2702 75.0599 96.0202 74.6899 95.6302 74.4999C95.2402 74.3099 94.6102 74.1799 93.7402 74.1099V72.9399H99.8102V82.0899C99.8102 84.4999 100.1 86.2599 100.68 87.3699C101.26 88.4799 102.17 89.0299 103.4 89.0299C105.37 89.0299 106.9 87.7399 107.99 85.1699C108.21 84.6599 108.36 84.1699 108.44 83.7099C108.5 83.2599 108.54 82.5499 108.54 81.5899Z" fill="white"/>
<path d="M131.95 86.6498L132.99 87.5898C131.09 89.8898 128.73 91.0398 125.91 91.0398C124.17 91.0398 122.63 90.6598 121.32 89.8998C120 89.1398 118.97 88.0799 118.24 86.7299C117.5 85.3799 117.13 83.8098 117.13 82.0198C117.13 80.1898 117.52 78.5598 118.3 77.1398C119.08 75.7198 120.16 74.6099 121.54 73.7999C122.91 72.9999 124.51 72.5898 126.32 72.5898C128.47 72.5898 130.14 73.1798 131.33 74.3498C132.53 75.5198 133.12 77.2098 133.12 79.3998C133.12 79.6898 133.06 79.8798 132.94 79.9498C132.82 80.0298 132.53 80.0698 132.08 80.0698H121.05C121 80.2498 120.97 80.4698 120.95 80.7198C120.93 80.9798 120.92 81.2598 120.92 81.5798C120.92 83.1198 121.17 84.4798 121.66 85.6398C122.15 86.7998 122.84 87.6998 123.74 88.3398C124.63 88.9798 125.67 89.2999 126.86 89.2999C127.78 89.2999 128.65 89.0899 129.48 88.6599C130.29 88.2399 131.12 87.5698 131.95 86.6498ZM121.28 78.5398H127.45C128.37 78.5398 128.93 78.4799 129.14 78.3699C129.35 78.2599 129.46 77.9998 129.46 77.5998C129.46 76.5698 129.12 75.7498 128.45 75.1398C127.78 74.5298 126.88 74.2198 125.77 74.2198C123.36 74.2098 121.86 75.6598 121.28 78.5398Z" fill="white"/>
<path d="M142.14 84.2401V85.3801C142.14 86.6101 142.19 87.5101 142.29 88.0801C142.39 88.6501 142.64 89.0201 143.03 89.1901C143.42 89.3601 144.04 89.4801 144.89 89.5401V90.7101H135.97V89.5401C136.84 89.5001 137.48 89.3801 137.88 89.2001C138.28 89.0201 138.54 88.6601 138.67 88.1101C138.79 87.5601 138.85 86.7301 138.85 85.6101V81.6901C138.85 80.1701 138.83 78.9801 138.78 78.1201C138.73 77.2601 138.62 76.6401 138.44 76.2601C138.26 75.8801 137.97 75.6501 137.57 75.5601C137.17 75.4701 136.61 75.4301 135.89 75.4301V74.2601L141.76 72.9901L142.23 77.1501H142.36C142.96 75.8101 143.8 74.7201 144.87 73.8801C145.94 73.0401 147.05 72.6201 148.19 72.6201C148.91 72.6201 149.47 72.7901 149.88 73.1401C150.29 73.4901 150.5 73.9501 150.5 74.5301C150.5 75.6701 149.85 76.2401 148.56 76.2401C148.09 76.2401 147.71 76.1701 147.42 76.0201C147.13 75.8701 146.87 75.7301 146.65 75.6001C146.43 75.4701 146.18 75.4001 145.91 75.4001C145.31 75.4001 144.7 75.7901 144.1 76.5601C143.5 77.3301 143.03 78.3101 142.69 79.4901C142.33 80.8001 142.14 82.3801 142.14 84.2401Z" fill="white"/>
<path d="M166.28 86.9601L167.29 87.9301C166.49 88.8901 165.45 89.6501 164.17 90.2101C162.9 90.7701 161.52 91.0501 160.05 91.0501C158.46 91.0501 157.06 90.6701 155.84 89.9101C154.62 89.1501 153.67 88.0901 152.99 86.7201C152.31 85.3601 151.97 83.7701 151.97 81.9601C151.97 80.0601 152.36 78.4101 153.14 77.0101C153.92 75.6101 155.01 74.5301 156.41 73.7601C157.81 72.9901 159.43 72.6001 161.29 72.6001C163.01 72.6001 164.43 72.8701 165.53 73.4201C166.64 73.9701 167.19 74.6801 167.19 75.5501C167.19 75.9701 167.04 76.3201 166.75 76.5701C166.46 76.8301 166.06 76.9601 165.54 76.9601C165.14 76.9601 164.8 76.8701 164.53 76.6901C164.26 76.5101 163.91 76.1401 163.49 75.5801C163.07 75.0701 162.64 74.7001 162.22 74.4901C161.8 74.2801 161.26 74.1701 160.61 74.1701C159.04 74.1701 157.85 74.7901 157.02 76.0101C156.19 77.2401 155.78 79.0501 155.78 81.4401C155.78 83.9901 156.24 85.9301 157.15 87.2701C158.07 88.6101 159.39 89.2801 161.11 89.2801C162.03 89.2801 162.91 89.1001 163.76 88.7301C164.62 88.3801 165.46 87.7801 166.28 86.9601Z" fill="white"/>
<path d="M185.03 79.7099L177.72 95.9699C176.69 98.2699 175.09 99.4199 172.92 99.4199C171.51 99.4199 170.81 98.8899 170.81 97.8399C170.81 97.2799 171.01 96.8699 171.4 96.5999C171.79 96.3299 172.51 96.1199 173.56 95.9599C174.48 95.7999 175.17 95.5499 175.66 95.1899C176.14 94.8299 176.59 94.2399 177.02 93.4099L178.19 91.0599L171.75 77.0799C171.37 76.2499 171.04 75.6299 170.76 75.2199C170.48 74.8099 170.17 74.5299 169.84 74.3799C169.5 74.2299 169.04 74.1399 168.43 74.0899V72.9199H177.32V74.0899C175.82 74.0899 175.07 74.4599 175.07 75.1999C175.07 75.4899 175.16 75.9499 175.34 76.5699C175.52 77.1999 175.74 77.8299 176.01 78.4799L179.7 87.3999H179.87L182.92 79.8599C183.32 78.8799 183.62 78.1199 183.83 77.5999C184.03 77.0799 184.17 76.6699 184.23 76.3799C184.3 76.0899 184.33 75.8199 184.33 75.5799C184.33 74.9999 184.17 74.6099 183.84 74.4099C183.52 74.2099 182.9 74.1099 181.98 74.1099V72.9399H189.36V74.1099C188.93 74.1099 188.57 74.1699 188.27 74.2899C187.97 74.4099 187.67 74.6599 187.38 75.0299C187.09 75.3999 186.76 75.9599 186.39 76.7099C186.02 77.4599 185.56 78.4599 185.03 79.7099Z" fill="white"/>
<path d="M96.97 110.73L102.94 125.82L108.84 111.27C109.18 110.44 109.41 109.79 109.54 109.31C109.67 108.83 109.74 108.41 109.74 108.05C109.74 107.45 109.55 107.02 109.17 106.78C108.79 106.53 108.11 106.41 107.12 106.41V105.14H115.27V106.41C114.24 106.52 113.47 106.77 112.96 107.15C112.45 107.53 112 108.19 111.62 109.13L102.53 131.29H101.36L92.71 110.4C92.15 109.04 91.57 108.05 90.97 107.45C90.37 106.85 89.47 106.51 88.29 106.44V105.13H99.22V106.44C97.99 106.44 97.17 106.56 96.77 106.79C96.37 107.02 96.17 107.38 96.17 107.85C96.17 108.16 96.23 108.53 96.35 108.94C96.47 109.35 96.68 109.95 96.97 110.73Z" fill="white"/>
<path d="M128.66 126.89L129.7 127.83C127.8 130.13 125.44 131.28 122.62 131.28C120.88 131.28 119.34 130.9 118.03 130.14C116.71 129.38 115.68 128.32 114.95 126.97C114.21 125.62 113.84 124.05 113.84 122.26C113.84 120.43 114.23 118.8 115.01 117.38C115.79 115.96 116.87 114.85 118.25 114.04C119.62 113.24 121.22 112.83 123.03 112.83C125.18 112.83 126.85 113.42 128.04 114.59C129.24 115.76 129.83 117.45 129.83 119.64C129.83 119.93 129.77 120.12 129.65 120.19C129.53 120.27 129.24 120.31 128.79 120.31H117.76C117.71 120.49 117.68 120.71 117.66 120.96C117.64 121.22 117.63 121.5 117.63 121.82C117.63 123.36 117.88 124.72 118.37 125.88C118.86 127.04 119.55 127.94 120.45 128.58C121.34 129.22 122.38 129.54 123.57 129.54C124.49 129.54 125.36 129.33 126.19 128.9C127 128.48 127.83 127.81 128.66 126.89ZM118 118.78H124.17C125.09 118.78 125.65 118.72 125.86 118.61C126.07 118.5 126.18 118.24 126.18 117.84C126.18 116.81 125.84 115.99 125.17 115.38C124.5 114.77 123.6 114.46 122.49 114.46C120.07 114.45 118.58 115.89 118 118.78ZM122.12 109.12H120.54L124.9 105.13C125.7 104.39 126.45 104.02 127.15 104.02C127.53 104.02 127.84 104.12 128.07 104.32C128.3 104.52 128.42 104.81 128.42 105.19C128.42 105.55 128.27 105.87 127.97 106.15C127.67 106.43 127.25 106.69 126.71 106.94L122.12 109.12Z" fill="white"/>
<path d="M134.76 115.29H132.75V114.05C133.93 113.33 134.86 112.64 135.53 111.95C136.2 111.27 136.71 110.45 137.07 109.49H138.04V113.72H142.53V115.3H138.04V125.49C138.04 127.06 138.2 128.14 138.53 128.74C138.85 129.34 139.46 129.65 140.36 129.65C140.92 129.65 141.4 129.53 141.8 129.3C142.2 129.07 142.58 128.67 142.94 128.11L143.78 128.75C143.13 130.45 141.63 131.3 139.29 131.3C137.81 131.3 136.69 130.94 135.92 130.23C135.15 129.51 134.76 128.51 134.76 127.21V115.29Z" fill="white"/>
<path d="M160.549 126.89L161.589 127.83C159.689 130.13 157.329 131.28 154.509 131.28C152.769 131.28 151.229 130.9 149.919 130.14C148.599 129.38 147.569 128.32 146.839 126.97C146.099 125.62 145.729 124.05 145.729 122.26C145.729 120.43 146.119 118.8 146.899 117.38C147.679 115.96 148.759 114.85 150.139 114.04C151.509 113.24 153.109 112.83 154.919 112.83C157.069 112.83 158.739 113.42 159.929 114.59C161.129 115.76 161.719 117.45 161.719 119.64C161.719 119.93 161.659 120.12 161.539 120.19C161.419 120.27 161.129 120.31 160.679 120.31H149.649C149.599 120.49 149.569 120.71 149.549 120.96C149.529 121.22 149.52 121.5 149.52 121.82C149.52 123.36 149.769 124.72 150.259 125.88C150.749 127.04 151.439 127.94 152.339 128.58C153.229 129.22 154.27 129.54 155.46 129.54C156.38 129.54 157.249 129.33 158.079 128.9C158.889 128.48 159.719 127.81 160.549 126.89ZM149.88 118.78H156.049C156.969 118.78 157.53 118.72 157.74 118.61C157.95 118.5 158.059 118.24 158.059 117.84C158.059 116.81 157.719 115.99 157.049 115.38C156.379 114.77 155.479 114.46 154.369 114.46C151.959 114.45 150.47 115.89 149.88 118.78ZM154.009 109.12H152.429L156.789 105.13C157.589 104.39 158.339 104.02 159.039 104.02C159.419 104.02 159.73 104.12 159.96 104.32C160.19 104.52 160.309 104.81 160.309 105.19C160.309 105.55 160.159 105.87 159.859 106.15C159.559 106.43 159.14 106.69 158.6 106.94L154.009 109.12Z" fill="white"/>
<path d="M170.74 124.48V125.62C170.74 126.85 170.79 127.75 170.89 128.32C170.99 128.89 171.24 129.26 171.63 129.43C172.02 129.6 172.64 129.72 173.49 129.78V130.95H164.57V129.78C165.44 129.74 166.08 129.62 166.48 129.44C166.88 129.26 167.14 128.9 167.27 128.35C167.39 127.8 167.45 126.97 167.45 125.85V121.93C167.45 120.41 167.43 119.22 167.38 118.36C167.34 117.5 167.22 116.88 167.04 116.5C166.86 116.12 166.57 115.89 166.17 115.8C165.77 115.71 165.21 115.67 164.49 115.67V114.5L170.36 113.23L170.83 117.39H170.96C171.56 116.05 172.4 114.96 173.47 114.12C174.54 113.28 175.65 112.86 176.79 112.86C177.51 112.86 178.07 113.03 178.48 113.38C178.89 113.73 179.1 114.19 179.1 114.77C179.1 115.91 178.45 116.48 177.16 116.48C176.69 116.48 176.31 116.41 176.02 116.26C175.73 116.11 175.47 115.97 175.25 115.84C175.03 115.71 174.78 115.64 174.51 115.64C173.91 115.64 173.3 116.03 172.7 116.8C172.1 117.57 171.63 118.55 171.29 119.73C170.93 121.04 170.74 122.62 170.74 124.48Z" fill="white"/>
<path d="M186.94 112.84V125.62C186.94 126.76 187.02 127.63 187.17 128.22C187.33 128.81 187.63 129.21 188.08 129.41C188.53 129.61 189.19 129.73 190.06 129.78V130.95H180.44V129.78C181.36 129.74 182.04 129.61 182.5 129.39C182.96 129.18 183.27 128.8 183.42 128.25C183.58 127.7 183.65 126.9 183.65 125.85V121.56C183.65 120.26 183.63 119.19 183.6 118.34C183.57 117.49 183.5 116.92 183.42 116.63C183.33 116.12 183.08 115.76 182.67 115.57C182.26 115.38 181.49 115.28 180.37 115.28V114.11L186.94 112.84ZM183.08 106.04C183.08 105.46 183.28 104.97 183.68 104.56C184.08 104.16 184.57 103.96 185.16 103.96C185.74 103.96 186.23 104.16 186.64 104.56C187.04 104.96 187.24 105.45 187.24 106.04C187.24 106.62 187.04 107.11 186.64 107.52C186.24 107.92 185.75 108.12 185.16 108.12C184.58 108.12 184.09 107.92 183.68 107.52C183.28 107.11 183.08 106.62 183.08 106.04Z" fill="white"/>
<path d="M197.97 121.19V125.68C197.97 126.89 198.02 127.77 198.12 128.33C198.22 128.89 198.47 129.26 198.87 129.44C199.27 129.62 199.9 129.74 200.75 129.81V130.95H191.96V129.81C192.79 129.74 193.4 129.63 193.8 129.46C194.2 129.29 194.46 128.94 194.59 128.4C194.71 127.86 194.77 127.04 194.77 125.92V121.46C194.77 118.78 194.7 117.16 194.57 116.6C194.44 116 194.2 115.61 193.87 115.44C193.53 115.27 192.87 115.19 191.89 115.19V114.12L197.26 112.85L197.66 116.17H197.79C198.64 115.12 199.64 114.3 200.79 113.72C201.94 113.14 203.18 112.85 204.5 112.85C205.53 112.85 206.47 113.02 207.32 113.35C208.17 113.69 208.82 114.14 209.26 114.72C209.64 115.23 209.91 115.9 210.06 116.72C210.22 117.54 210.29 118.66 210.29 120.09V125.69C210.29 126.9 210.35 127.78 210.46 128.34C210.57 128.9 210.82 129.27 211.21 129.45C211.6 129.63 212.2 129.75 213 129.82V130.96H204.32V129.82C205.17 129.78 205.79 129.66 206.18 129.48C206.57 129.3 206.82 128.94 206.93 128.39C207.04 127.84 207.1 127.02 207.1 125.93V121.5C207.1 118.97 206.81 117.2 206.23 116.19C205.65 115.17 204.66 114.66 203.28 114.66C202.3 114.66 201.38 114.92 200.53 115.45C199.68 115.98 199.02 116.7 198.55 117.61C198.39 117.9 198.27 118.19 198.18 118.47C198.09 118.75 198.03 119.1 198 119.51C197.99 119.91 197.97 120.48 197.97 121.19Z" fill="white"/>
<path d="M220.7 121.7L225.53 119.59V118.22C225.53 116.81 225.24 115.78 224.67 115.12C224.1 114.46 223.2 114.13 221.97 114.13C221.25 114.13 220.73 114.28 220.41 114.57C220.09 114.86 219.78 115.44 219.49 116.31C219.24 116.94 219 117.36 218.77 117.58C218.54 117.8 218.19 117.92 217.75 117.92C216.63 117.92 216.07 117.36 216.07 116.24C216.07 115.17 216.64 114.33 217.78 113.74C218.92 113.15 220.54 112.85 222.64 112.85C224.9 112.85 226.49 113.24 227.42 114.02C228.35 114.8 228.81 116.16 228.81 118.08V125.59C228.81 126.98 228.94 127.96 229.21 128.54C229.48 129.12 229.9 129.41 230.48 129.41C230.7 129.41 230.97 129.36 231.27 129.26C231.57 129.16 231.8 128.96 231.96 128.67L232.43 129.47C232.16 129.98 231.67 130.41 230.95 130.76C230.23 131.11 229.49 131.28 228.7 131.28C227.74 131.28 227.01 130.97 226.52 130.34C226.03 129.71 225.78 128.83 225.78 127.69H225.61C225.01 128.79 224.19 129.65 223.16 130.29C222.13 130.93 220.99 131.25 219.74 131.25C218.38 131.25 217.29 130.89 216.47 130.16C215.65 129.43 215.25 128.47 215.25 127.26C215.25 126.21 215.64 125.24 216.42 124.36C217.23 123.48 218.65 122.59 220.7 121.7ZM225.53 123.67V121.02C222.96 121.98 221.17 122.93 220.16 123.85C219.15 124.78 218.65 125.72 218.65 126.68C218.65 127.44 218.9 128.05 219.39 128.52C219.88 128.99 220.51 129.22 221.27 129.22C222.07 129.22 222.8 128.97 223.45 128.47C224.1 127.97 224.61 127.29 224.98 126.44C225.35 125.61 225.53 124.68 225.53 123.67Z" fill="white"/>
<path d="M240.049 112.84V125.62C240.049 126.76 240.129 127.63 240.279 128.22C240.439 128.81 240.739 129.21 241.189 129.41C241.639 129.61 242.299 129.73 243.169 129.78V130.95H233.549V129.78C234.469 129.74 235.149 129.61 235.609 129.39C236.069 129.18 236.379 128.8 236.529 128.25C236.689 127.7 236.759 126.9 236.759 125.85V121.56C236.759 120.26 236.74 119.19 236.71 118.34C236.68 117.49 236.609 116.92 236.529 116.63C236.439 116.12 236.189 115.76 235.779 115.57C235.369 115.38 234.599 115.28 233.479 115.28V114.11L240.049 112.84ZM236.199 106.04C236.199 105.46 236.399 104.97 236.799 104.56C237.199 104.16 237.689 103.96 238.279 103.96C238.859 103.96 239.349 104.16 239.759 104.56C240.159 104.96 240.359 105.45 240.359 106.04C240.359 106.62 240.159 107.11 239.759 107.52C239.359 107.92 238.869 108.12 238.279 108.12C237.699 108.12 237.209 107.92 236.799 107.52C236.399 107.11 236.199 106.62 236.199 106.04Z" fill="white"/>
<path d="M251.28 124.48V125.62C251.28 126.85 251.33 127.75 251.43 128.32C251.53 128.89 251.78 129.26 252.17 129.43C252.56 129.6 253.18 129.72 254.03 129.78V130.95H245.11V129.78C245.98 129.74 246.62 129.62 247.02 129.44C247.42 129.26 247.68 128.9 247.81 128.35C247.93 127.8 247.99 126.97 247.99 125.85V121.93C247.99 120.41 247.97 119.22 247.92 118.36C247.88 117.5 247.76 116.88 247.58 116.5C247.4 116.12 247.11 115.89 246.71 115.8C246.31 115.71 245.75 115.67 245.03 115.67V114.5L250.9 113.23L251.37 117.39H251.5C252.1 116.05 252.94 114.96 254.01 114.12C255.08 113.28 256.19 112.86 257.33 112.86C258.05 112.86 258.61 113.03 259.02 113.38C259.43 113.73 259.64 114.19 259.64 114.77C259.64 115.91 258.99 116.48 257.7 116.48C257.23 116.48 256.85 116.41 256.56 116.26C256.27 116.11 256.01 115.97 255.79 115.84C255.57 115.71 255.32 115.64 255.05 115.64C254.45 115.64 253.84 116.03 253.24 116.8C252.64 117.57 252.17 118.55 251.83 119.73C251.47 121.04 251.28 122.62 251.28 124.48Z" fill="white"/>
<path d="M275.93 126.89L276.97 127.83C275.07 130.13 272.71 131.28 269.89 131.28C268.15 131.28 266.61 130.9 265.3 130.14C263.98 129.38 262.95 128.32 262.22 126.97C261.48 125.62 261.11 124.05 261.11 122.26C261.11 120.43 261.5 118.8 262.28 117.38C263.06 115.96 264.14 114.85 265.52 114.04C266.89 113.24 268.49 112.83 270.3 112.83C272.45 112.83 274.12 113.42 275.31 114.59C276.51 115.76 277.1 117.45 277.1 119.64C277.1 119.93 277.04 120.12 276.92 120.19C276.8 120.27 276.51 120.31 276.06 120.31H265.03C264.98 120.49 264.95 120.71 264.93 120.96C264.91 121.22 264.9 121.5 264.9 121.82C264.9 123.36 265.15 124.72 265.64 125.88C266.13 127.04 266.82 127.94 267.72 128.58C268.61 129.22 269.65 129.54 270.84 129.54C271.76 129.54 272.63 129.33 273.46 128.9C274.28 128.48 275.1 127.81 275.93 126.89ZM265.27 118.78H271.44C272.36 118.78 272.92 118.72 273.13 118.61C273.34 118.5 273.45 118.24 273.45 117.84C273.45 116.81 273.11 115.99 272.44 115.38C271.77 114.77 270.87 114.46 269.76 114.46C267.35 114.45 265.85 115.89 265.27 118.78Z" fill="white"/>
<path d="M288.27 144.07C288.27 67.24 225.99 4.95996 149.16 4.95996C72.33 4.95996 10.04 67.24 10.04 144.07C10.04 220.9 72.32 283.18 149.15 283.18C180.17 283.18 208.81 273.03 231.94 255.87C266.12 230.52 288.27 189.88 288.27 144.07Z" stroke="white" stroke-width="3" stroke-miterlimit="10"/>
</svg>
