<?xml version="1.0" encoding="UTF-8" standalone="no"?>
<svg
   width="2729.2"
   height="2729.2"
   viewBox="0 0 2729.2 2729.2"
   fill="none"
   version="1.1"
   id="svg84"
   sodipodi:docname="logo.svg"
   inkscape:version="1.2.2 (b0a8486541, 2022-12-01)"
   xmlns:inkscape="http://www.inkscape.org/namespaces/inkscape"
   xmlns:sodipodi="http://sodipodi.sourceforge.net/DTD/sodipodi-0.dtd"
   xmlns="http://www.w3.org/2000/svg"
   xmlns:svg="http://www.w3.org/2000/svg">
  <defs
     id="defs88" />
  <sodipodi:namedview
     id="namedview86"
     pagecolor="#ffffff"
     bordercolor="#000000"
     borderopacity="0.25"
     inkscape:showpageshadow="2"
     inkscape:pageopacity="0.0"
     inkscape:pagecheckerboard="0"
     inkscape:deskcolor="#d1d1d1"
     showgrid="false"
     inkscape:zoom="0.2652027"
     inkscape:cx="1361.2229"
     inkscape:cy="1355.5669"
     inkscape:window-width="1854"
     inkscape:window-height="1011"
     inkscape:window-x="0"
     inkscape:window-y="0"
     inkscape:window-maximized="1"
     inkscape:current-layer="svg84" />
  <path
     d="M 2721.2,1364.6 C 2721.2,615.37 2113.83,8 1364.6,8 615.37,8 8,615.37 8,1364.6 c 0,749.23 607.37,1356.6 1356.6,1356.6 302.46,0 581.8,-98.98 807.4,-266.32 333.23,-247.19 549.2,-643.52 549.2,-1090.28 z"
     stroke="#000000"
     stroke-width="16"
     stroke-miterlimit="10"
     id="path62"
     style="fill:#ffffff" />
  <path
     d="m 1558.55,2702.47 c 0.99,-5.11 4.09,-120.51 -11.23,-209.36 -15.32,-88.85 -22.47,-87.83 -38.81,-145.02 -16.34,-57.19 -23.49,-76.6 -38.81,-110.3 -15.32,-33.7 -50.04,-79.66 -75.57,-119.49 -25.53,-39.83 -50.04,-61.28 -72.51,-92.94 -22.47,-31.66 -62.3,-67.4 -84.77,-93.96 -22.47,-26.55 -38.81,-49.02 -56.17,-82.72 -17.36,-33.7 -23.49,-61.28 -24.51,-90.89 -1.02,-29.62 2.04,-45.96 6.13,-71.49 4.09,-25.53 18.38,-68.43 32.68,-117.45 14.3,-49.02 21.45,-40.85 21.45,-40.85 0,0 11.23,-10.21 28.6,-7.15 17.37,3.06 44.94,18.38 44.94,18.38 0,0 49.02,35.74 97.02,66.38 48,30.64 55.15,21.45 96,35.74 40.85,14.3 96,19.4 135.83,27.57 39.83,8.17 103.15,46.98 161.36,87.83 58.21,40.85 132.51,149.36 132.51,149.36 0,0 106.47,291.83 155.49,417.45 0,0 93.29,131.87 103.84,131.29"
     stroke="#000000"
     stroke-width="10"
     stroke-miterlimit="10"
     id="path64" />
  <path
     d="m 1639.23,1756.77 c 0,0 16.85,3.06 7.66,58.21 -9.19,55.15 -21.45,85.79 -35.23,173.11 -13.78,87.32 -27.57,116.43 -19.91,179.23 7.66,62.81 27.85,85.79 27.85,85.79 0,0 36.49,18.38 82.45,0 45.96,-18.38 72,-15.32 98.04,-56.68 26.04,-41.36 68.94,-142.47 68.94,-142.47 0,0 35.23,-82.72 35.23,-94.98"
     stroke="#000000"
     stroke-width="10"
     stroke-miterlimit="10"
     id="path66" />
  <path
     d="m 319.2,499.97 c 0,0 60.79,167.09 103.69,275.34 42.9,108.25 53.11,145.02 120.51,196.09 67.4,51.06 140.94,120.51 177.7,159.32 36.77,38.81 120.51,143.34 120.51,143.34 0,0 24.51,52.74 61.28,107.89 36.77,55.15 55.15,83.74 75.57,110.3 20.43,26.55 49.02,44.94 51.06,63.32 2.04,18.38 3.57,30.13 -14.81,38.3 0,0 -4.6,8.17 -24,2.55 -19.4,-5.62 -93.96,-76.15 -93.96,-76.15 -16.34,-23.94 -71.49,-95.43 -71.49,-95.43 0,0 -20.43,-40.85 -44.94,-46.98 -24.51,-6.13 -32.68,-14.3 -40.85,10.21 -8.17,24.51 -10.21,34.72 -2.04,93.96 8.17,59.23 33.19,195.83 50.04,238.72 16.85,42.89 35.23,85.02 38.3,97.28 3.06,12.26 29.11,48.26 36,59.74 6.89,11.49 50.55,94.98 61.28,130.21 10.72,35.23 18.38,39.83 15.32,52.09 -3.06,12.26 -3.83,19.91 -12.26,22.98 -8.43,3.06 -8.43,9.19 -28.34,-9.19 -19.91,-18.38 -25.28,-20.68 -45.96,-49.79 -20.68,-29.11 -55.91,-91.91 -55.91,-91.91 0,0 -14.55,-31.4 -18.38,-36.77 -3.83,-5.36 -32.17,-38.3 -43.66,-50.55 -11.49,-12.26 -29.11,-32.17 -29.11,-32.17 0,0 -4.6,0 -11.49,-21.45 -6.89,-21.45 -24.51,-89.62 -38.3,-114.89 -13.79,-25.28 -55.15,-109.53 -55.15,-109.53"
     stroke="#000000"
     stroke-width="10"
     stroke-miterlimit="10"
     id="path68" />
  <path
     d="m 761.45,1618.6 c 0,0 57.69,69.74 69.95,84.03 4.16,4.86 9.86,11.01 15.57,17.02 11.09,11.68 22.22,22.81 22.22,22.81 0,0 14.3,10.21 45.96,25.53 31.66,15.32 57.19,17.36 96,42.89 38.81,25.53 62.3,43.91 66.38,52.09 4.09,8.17 13.28,29.62 0,34.72 -13.28,5.11 -27.26,3.06 -46.82,-4.09 -19.56,-7.15 -112.5,-39.83 -121.69,-46.98 -9.19,-7.15 -19.4,-1.02 -42.89,-10.21 -23.49,-9.19 -40.34,-18.38 -40.34,-18.38"
     stroke="#000000"
     stroke-width="10"
     stroke-miterlimit="10"
     id="path70" />
  <path
     d="m 753.43,1577.66 c 0,0 32.02,13.66 68.78,36.12 36.77,22.47 53.11,26.55 53.11,26.55 0,0 14.59,11.23 47.63,14.3 33.04,3.07 39.17,2.04 65.73,9.19 26.55,7.15 44.94,8.17 53.11,21.45 8.17,13.28 25.53,24.51 20.43,37.79 -5.11,13.28 -5.11,26.55 -48,23.49 -42.89,-3.06 -93.96,-8.17 -121.53,-13.28 -27.57,-5.11 -45.71,-13.62 -45.71,-13.62"
     stroke="#000000"
     stroke-width="10"
     stroke-miterlimit="10"
     id="path72" />
  <path
     d="m 741.15,1506.93 c 0,0 14.67,12.9 40.21,35.36 25.53,22.47 38.81,28.6 38.81,28.6 0,0 45.96,14.3 73.53,29.62 27.57,15.32 37.79,23.49 44.94,30.64 7.15,7.15 8.77,25.53 8.77,25.53"
     stroke="#000000"
     stroke-width="10"
     stroke-miterlimit="10"
     id="path74" />
  <path
     d="m 137.92,784.55 c 0,0 16.38,43.87 89.91,130.68 73.53,86.81 111.32,137.87 156.26,198.13 44.94,60.26 91.91,166.47 91.91,166.47 0,0 59.23,147.06 71.49,181.79 12.26,34.72 14.3,70.47 27.57,89.87 13.28,19.4 40.6,66.62 61.06,88.33"
     stroke="#000000"
     stroke-width="10"
     stroke-miterlimit="10"
     id="path76" />
  <path
     d="m 1283.09,1535.62 c 0,0 -3.35,18.94 -27.86,28.13 -24.51,9.19 -60.26,5.11 -60.26,5.11"
     stroke="#000000"
     stroke-width="10"
     stroke-miterlimit="10"
     id="path78" />
  <path
     d="m 1194.98,1562.98 c 0,9.94 23.26,3.7 45.19,3.7 21.93,0 42.92,-21.12 42.92,-31.06 0,-9.94 -34.01,-22.68 -55.94,-22.68 -21.93,0 -32.17,40.1 -32.17,50.04 z"
     fill="#000000"
     id="path80" />
  <path
     d="m 774.234,891.44 c -4.59,0.49 -9.521,0.73 -14.795,0.73 -31.933,0 -58.008,-9.47 -78.222,-28.416 -20.118,-19.043 -30.176,-44.336 -30.176,-75.879 0,-30.566 10.205,-55.127 30.615,-73.681 20.508,-18.653 46.143,-27.979 76.904,-27.979 18.946,0 37.256,4.15 54.932,12.451 17.676,8.203 31.055,20.41 40.137,36.621 9.082,16.114 13.623,33.985 13.623,53.614 0,22.851 -5.957,43.066 -17.871,60.644 -11.817,17.578 -28.955,29.885 -51.416,36.915 l -43.799,24.17 c 3.027,-0.29 5.664,-0.44 7.91,-0.44 21.68,0 46.631,4.88 74.854,14.65 21.679,7.52 38.867,11.28 51.56,11.28 17.58,0 28.03,-6.64 31.35,-19.92 h 6.15 c -1.66,13.47 -7.27,24.41 -16.84,32.81 -9.57,8.4 -21.93,12.6 -37.064,12.6 -9.961,0 -19.043,-1.62 -27.246,-4.84 -8.106,-3.22 -18.701,-8.98 -31.787,-17.28 -23.438,-14.94 -42.969,-22.42 -58.594,-22.42 -9.375,0 -18.457,3.72 -27.246,11.14 -5.86,4.88 -9.912,7.32 -12.158,7.32 -3.516,0 -5.274,-1.61 -5.274,-4.83 0,-2.44 2.1,-4.98 6.299,-7.62 4.199,-2.54 12.109,-6.64 23.73,-12.3 2.442,-1.18 4.883,-2.45 7.325,-3.81 z M 684.586,788.901 c 0,31.933 6.347,55.908 19.043,71.923 12.793,16.016 31.933,24.026 57.422,24.026 22.363,0 40.039,-8.01 53.027,-24.026 12.988,-16.015 19.482,-39.892 19.482,-71.63 0,-30.86 -6.396,-54.493 -19.189,-70.899 -12.793,-16.504 -31.348,-24.756 -55.664,-24.756 -23.926,0 -42.285,8.057 -55.078,24.17 -12.696,16.016 -19.043,39.746 -19.043,71.192 z M 1013,768.539 v 78.662 c 0,13.086 0.2,21.289 0.59,24.61 0.39,3.319 1.81,5.809 4.25,7.469 2.54,1.66 7.03,2.49 13.47,2.49 v 6.74 c -14.84,0.2 -25.68,1.76 -32.52,4.69 h -1.75 c -3.13,-5.37 -4.79,-14.65 -4.98,-27.835 -5.96,9.275 -12.8,16.265 -20.51,20.945 -7.62,4.69 -16.07,7.03 -25.34,7.03 -8.01,0 -15.09,-1.8 -21.24,-5.42 -6.16,-3.71 -10.4,-8.2 -12.75,-13.47 -2.24,-5.276 -3.37,-13.235 -3.37,-23.879 v -40.87 c 0,-13.867 -0.24,-22.314 -0.73,-25.341 -0.49,-3.125 -2.05,-5.42 -4.69,-6.885 -2.54,-1.465 -7.27,-2.197 -14.21,-2.197 v -6.739 h 40.73 v 83.203 c 0,8.204 0.49,14.161 1.46,17.872 0.98,3.706 3.47,6.986 7.47,9.816 4.01,2.73 8.65,4.1 13.92,4.1 7.52,0 14.7,-2.44 21.53,-7.32 6.84,-4.985 11.48,-10.21 13.92,-15.679 2.54,-5.566 3.81,-13.476 3.81,-23.73 v -27.1 c 0,-13.086 -0.15,-21.045 -0.44,-23.877 -0.3,-2.832 -1.57,-5.273 -3.81,-7.324 -2.15,-2.148 -6.69,-3.222 -13.62,-3.222 h -3.08 v -6.739 z m 145.9,40.576 h -83.64 c -0.39,5.762 -0.59,10.059 -0.59,12.891 0,21.094 3.28,36.963 9.82,47.608 6.64,10.546 16.5,15.816 29.59,15.816 17.77,0 30.37,-7.96 37.79,-23.873 h 7.03 c -3.12,9.961 -9.32,17.773 -18.6,23.433 -9.28,5.57 -19.39,8.35 -30.32,8.35 -10.16,0 -19.78,-2.54 -28.86,-7.61 -8.99,-5.18 -16.36,-12.45 -22.12,-21.829 -5.76,-9.375 -8.64,-20.752 -8.64,-34.131 0,-18.946 5.56,-34.668 16.7,-47.168 11.13,-12.598 25.05,-18.897 41.74,-18.897 15.73,0 27.89,4.785 36.48,14.356 8.59,9.57 13.13,19.922 13.62,31.054 z m -25.63,-5.859 c 0.29,-2.246 0.44,-4.248 0.44,-6.006 0,-8.594 -2.54,-15.234 -7.62,-19.922 -4.98,-4.785 -11.13,-7.177 -18.46,-7.177 -17.77,0 -28.37,11.035 -31.78,33.105 z m 87.01,-8.935 c 3.32,-8.692 8.69,-15.967 16.11,-21.827 7.52,-5.859 14.85,-8.789 21.98,-8.789 6.44,0 11.52,2.002 15.23,6.006 3.71,4.004 5.57,8.106 5.57,12.305 0,2.832 -0.98,5.273 -2.93,7.324 -1.86,2.051 -4.15,3.076 -6.89,3.076 -4.88,0 -8.59,-3.613 -11.13,-10.84 -1.76,-4.882 -4.4,-7.324 -7.91,-7.324 -4.2,0 -9.23,2.881 -15.09,8.643 -5.86,5.664 -9.62,11.572 -11.28,17.724 -1.66,6.153 -2.49,14.6 -2.49,25.342 v 21.387 c 0,12.793 0.15,20.85 0.44,24.17 0.39,3.322 1.81,5.862 4.25,7.612 2.44,1.76 6.79,2.64 13.04,2.64 h 4.1 v 6.74 h -63.72 v -6.74 h 3.07 c 5.86,0 10.01,-0.78 12.45,-2.34 2.54,-1.66 4.06,-3.96 4.54,-6.89 0.49,-2.926 0.74,-11.325 0.74,-25.192 V 813.51 c 0,-12.891 -0.2,-20.947 -0.59,-24.17 -0.29,-3.32 -1.66,-5.859 -4.1,-7.617 -2.44,-1.856 -6.79,-2.783 -13.04,-2.783 h -3.07 v -6.592 c 9.18,-1.074 21.19,-3.955 36.03,-8.643 2.83,7.715 4.4,17.92 4.69,30.616 z m 168.46,64.892 h 6.44 c -6.64,22.757 -23.24,34.127 -49.8,34.127 -17.09,0 -31.5,-5.81 -43.22,-17.43 -11.62,-11.619 -17.43,-27 -17.43,-46.14 0,-19.629 6.3,-35.547 18.9,-47.754 12.6,-12.207 27.49,-18.311 44.68,-18.311 10.35,0 19.87,2.295 28.56,6.885 8.69,4.492 13.04,10.01 13.04,16.553 0,2.441 -0.83,4.736 -2.49,6.885 -1.56,2.148 -3.86,3.222 -6.89,3.222 -6.44,0 -10.4,-3.76 -11.86,-11.279 -1.17,-5.664 -2.98,-9.619 -5.42,-11.865 -2.54,-2.246 -7.47,-3.369 -14.8,-3.369 -13.08,0 -22.95,4.541 -29.59,13.623 -6.54,9.082 -9.81,22.754 -9.81,41.015 0,18.848 3.51,33.594 10.55,44.239 7.12,10.646 17.87,15.966 32.22,15.966 19.34,0 31.64,-8.79 36.92,-26.367 z m 91.4,6.592 27.83,-66.65 c 4.01,-9.766 6.01,-15.186 6.01,-16.26 0,-4.883 -5.42,-7.422 -16.26,-7.617 v -6.739 h 42.19 v 6.739 c -6.54,0.293 -11.33,2.05 -14.36,5.273 -3.02,3.125 -6.78,10.107 -11.28,20.947 l -53.46,129.052 c -5.08,12.31 -9.57,20.66 -13.48,25.05 -3.91,4.49 -8.2,6.74 -12.89,6.74 -6.35,0 -9.52,-2.88 -9.52,-8.64 0,-6.65 5.08,-12.26 15.23,-16.85 5.96,-2.64 9.91,-4.88 11.87,-6.74 2.05,-1.85 4.05,-5.22 6,-10.11 l 11.43,-28.56 -45.12,-96.68 c -4,-8.496 -7.32,-13.867 -9.96,-16.113 -2.64,-2.246 -7.13,-3.369 -13.48,-3.369 v -6.739 h 55.08 v 6.739 c -9.67,0.293 -14.5,2.294 -14.5,6.005 0,1.465 1.9,6.25 5.71,14.356 z M 1202.55,1236.2 h -9.08 l -68.55,-157.91 c -1.27,-2.83 -3.27,-7.72 -6.01,-14.65 -3.81,-9.38 -7.81,-15.67 -12.01,-18.9 -4.2,-3.22 -10.99,-4.93 -20.36,-5.12 v -6.74 h 85.55 v 6.74 c -10.65,0 -17.83,0.78 -21.54,2.34 -3.61,1.56 -5.42,4.54 -5.42,8.93 0,2.84 2.3,9.48 6.89,19.93 l 57.13,131.83 45.85,-109.71 c 7.71,-18.36 11.57,-30.33 11.57,-35.89 0,-11.23 -7.96,-17.04 -23.88,-17.43 v -6.74 h 60.65 v 6.74 c -6.16,0.19 -11.58,2.39 -16.26,6.59 -4.69,4.2 -8.74,10.35 -12.16,18.45 l -13.33,31.21 z m 221.78,-84.08 h -83.64 c -0.39,5.76 -0.59,10.05 -0.59,12.89 0,21.09 3.27,36.96 9.82,47.6 6.64,10.55 16.5,15.82 29.59,15.82 17.77,0 30.37,-7.96 37.79,-23.87 h 7.03 c -3.12,9.96 -9.32,17.77 -18.6,23.43 -9.28,5.57 -19.39,8.35 -30.32,8.35 -10.16,0 -19.78,-2.54 -28.86,-7.61 -8.99,-5.18 -16.36,-12.45 -22.12,-21.83 -5.76,-9.37 -8.64,-20.75 -8.64,-34.13 0,-18.95 5.56,-34.67 16.7,-47.17 11.13,-12.6 25.05,-18.89 41.74,-18.89 15.73,0 27.89,4.78 36.48,14.35 8.59,9.57 13.13,19.92 13.62,31.06 z m -25.63,-5.86 c 0.29,-2.25 0.44,-4.25 0.44,-6.01 0,-8.59 -2.54,-15.23 -7.62,-19.92 -4.98,-4.79 -11.13,-7.18 -18.46,-7.18 -17.77,0 -28.37,11.04 -31.78,33.11 z m -43.51,-61.53 h -4.83 l 21.97,-34.13 c 4.49,-7.03 8.01,-11.72 10.55,-14.06 2.63,-2.44 5.56,-3.66 8.79,-3.66 2.83,0 5.03,0.88 6.59,2.63 1.56,1.66 2.34,3.47 2.34,5.42 0,2.64 -1.07,5.18 -3.22,7.62 -2.05,2.44 -8.69,8.35 -19.92,17.73 z m 162.89,33.55 h -36.18 v 72.51 c 0,11.13 0.49,18.65 1.47,22.56 0.97,3.8 3.02,6.88 6.15,9.22 3.22,2.35 6.64,3.52 10.25,3.52 7.03,0 13.14,-4 18.31,-12.01 l 4.69,2.78 c -3.03,6.45 -7.52,11.33 -13.48,14.65 -5.86,3.22 -11.81,4.83 -17.87,4.83 -7.03,0 -13.23,-2.05 -18.6,-6.15 -5.28,-4.2 -8.6,-9.08 -9.96,-14.65 -1.27,-5.56 -1.91,-15.33 -1.91,-29.29 v -67.97 h -17.43 v -6.74 c 8.01,-0.2 15.19,-3.57 21.53,-10.11 6.35,-6.54 10.4,-15.72 12.16,-27.54 h 4.69 v 37.65 h 36.18 z m 125.1,33.84 h -83.64 c -0.39,5.76 -0.59,10.05 -0.59,12.89 0,21.09 3.27,36.96 9.82,47.6 6.64,10.55 16.5,15.82 29.59,15.82 17.77,0 30.37,-7.96 37.79,-23.87 h 7.03 c -3.13,9.96 -9.33,17.77 -18.6,23.43 -9.28,5.57 -19.39,8.35 -30.33,8.35 -10.15,0 -19.77,-2.54 -28.85,-7.61 -8.99,-5.18 -16.36,-12.45 -22.12,-21.83 -5.76,-9.37 -8.65,-20.75 -8.65,-34.13 0,-18.95 5.57,-34.67 16.7,-47.17 11.14,-12.6 25.05,-18.89 41.75,-18.89 15.72,0 27.88,4.78 36.48,14.35 8.59,9.57 13.13,19.92 13.62,31.06 z m -25.64,-5.86 c 0.3,-2.25 0.44,-4.25 0.44,-6.01 0,-8.59 -2.53,-15.23 -7.61,-19.92 -4.98,-4.79 -11.14,-7.18 -18.46,-7.18 -17.77,0 -28.37,11.04 -31.79,33.11 z m -43.5,-61.53 h -4.84 l 21.98,-34.13 c 4.49,-7.03 8.01,-11.72 10.54,-14.06 2.64,-2.44 5.57,-3.66 8.79,-3.66 2.84,0 5.03,0.88 6.6,2.63 1.56,1.66 2.34,3.47 2.34,5.42 0,2.64 -1.08,5.18 -3.22,7.62 -2.05,2.44 -8.69,8.35 -19.93,17.73 z m 130.52,52.59 c 3.32,-8.69 8.69,-15.97 16.11,-21.83 7.52,-5.86 14.84,-8.78 21.97,-8.78 6.45,0 11.53,2 15.24,6 3.71,4.01 5.56,8.11 5.56,12.31 0,2.83 -0.97,5.27 -2.93,7.32 -1.85,2.05 -4.15,3.08 -6.88,3.08 -4.88,0 -8.59,-3.62 -11.13,-10.84 -1.76,-4.89 -4.4,-7.33 -7.91,-7.33 -4.2,0 -9.23,2.88 -15.09,8.64 -5.86,5.67 -9.62,11.58 -11.28,17.73 -1.66,6.15 -2.49,14.6 -2.49,25.34 v 21.39 c 0,12.79 0.14,20.85 0.44,24.17 0.39,3.32 1.8,5.86 4.25,7.61 2.44,1.76 6.78,2.64 13.03,2.64 h 4.1 v 6.74 h -63.72 v -6.74 h 3.08 c 5.86,0 10.01,-0.78 12.45,-2.34 2.54,-1.66 4.05,-3.96 4.54,-6.89 0.49,-2.93 0.73,-11.32 0.73,-25.19 v -33.84 c 0,-12.89 -0.19,-20.95 -0.58,-24.17 -0.29,-3.32 -1.66,-5.86 -4.1,-7.62 -2.44,-1.85 -6.79,-2.78 -13.04,-2.78 h -3.08 v -6.59 c 9.18,-1.08 21.2,-3.96 36.04,-8.64 2.83,7.71 4.39,17.92 4.69,30.61 z m 79.68,-91.85 c 0,-4.19 1.47,-7.81 4.4,-10.84 3.03,-3.02 6.64,-4.54 10.84,-4.54 4.2,0 7.76,1.52 10.69,4.54 2.93,3.03 4.4,6.65 4.4,10.84 0,4.3 -1.47,7.96 -4.4,10.99 -2.93,3.03 -6.49,4.54 -10.69,4.54 -4.2,0 -7.81,-1.51 -10.84,-4.54 -2.93,-3.03 -4.4,-6.69 -4.4,-10.99 z m 28.28,61.24 v 83.64 c 0,12.79 0.19,20.85 0.58,24.17 0.39,3.32 1.81,5.86 4.25,7.61 2.44,1.76 6.79,2.64 13.04,2.64 h 3.07 v 6.74 h -64.6 v -6.74 h 4.98 c 6.94,0 11.43,-0.97 13.48,-2.93 2.15,-2.05 3.37,-4.44 3.66,-7.18 0.39,-2.83 0.59,-10.93 0.59,-24.31 v -36.33 c 0,-14.06 -0.69,-22.66 -2.05,-25.78 -1.27,-3.13 -3.03,-5.08 -5.28,-5.86 -2.14,-0.78 -5.95,-1.17 -11.42,-1.17 h -3.96 v -6.74 c 17.39,-1.76 30.86,-4.35 40.43,-7.76 z m 67.96,0 h 3.96 c 2.25,6.05 3.51,14.3 3.81,24.75 7.03,-8.3 14.4,-14.5 22.12,-18.6 7.71,-4.1 15.77,-6.15 24.17,-6.15 9.57,0 17.38,2 23.43,6 6.16,4.01 10.11,8.94 11.87,14.8 1.76,5.76 2.64,14.21 2.64,25.34 v 37.5 c 0,13.87 0.24,22.31 0.73,25.34 0.49,3.03 2,5.32 4.54,6.88 2.64,1.47 7.42,2.2 14.36,2.2 v 6.74 h -61.38 v -6.74 h 2.78 c 7.03,0 11.62,-1.02 13.77,-3.07 2.15,-2.06 3.37,-4.45 3.66,-7.18 0.3,-2.74 0.44,-10.79 0.44,-24.17 v -38.67 c 0,-9.48 -0.49,-16.21 -1.46,-20.22 -0.88,-4.1 -3.37,-7.71 -7.47,-10.84 -4.01,-3.12 -9.13,-4.69 -15.38,-4.69 -7.13,0 -13.97,2.15 -20.51,6.45 -6.45,4.2 -12.55,10.55 -18.31,19.04 v 48.93 c 0,13.87 0.24,22.31 0.73,25.34 0.59,3.03 2.15,5.32 4.69,6.88 2.63,1.47 7.47,2.2 14.5,2.2 v 6.74 h -60.64 v -6.74 c 6.73,0 11.42,-0.68 14.06,-2.05 2.63,-1.37 4.25,-3.42 4.83,-6.15 0.69,-2.83 1.03,-11.57 1.03,-26.22 v -35.74 c 0,-13.97 -0.3,-22.42 -0.88,-25.35 -0.49,-3.02 -2.05,-5.27 -4.69,-6.73 -2.54,-1.57 -7.32,-2.35 -14.35,-2.35 v -6.74 c 10.74,-1.17 21.72,-3.41 32.95,-6.73 z m 250.2,102.83 h 5.42 c -0.88,16.7 -9.08,25.05 -24.61,25.05 -6.64,0 -11.91,-1.76 -15.82,-5.28 -3.81,-3.51 -6.3,-8.74 -7.47,-15.67 -9.77,6.93 -18.7,12.16 -26.81,15.67 -8.01,3.52 -15.18,5.28 -21.53,5.28 -8.11,0 -15.09,-2.35 -20.95,-7.04 -5.86,-4.68 -8.79,-10.88 -8.79,-18.6 0,-10.06 4.89,-18.85 14.65,-26.37 9.86,-7.52 23.44,-14.84 40.72,-21.97 l 22.71,-9.23 v -5.86 c 0,-8.3 -0.54,-14.3 -1.61,-18.01 -1.08,-3.71 -3.86,-7.04 -8.35,-9.96 -4.49,-2.93 -10.4,-4.4 -17.73,-4.4 -14.64,0 -22.8,4.88 -24.46,14.65 -1.56,9.96 -5.66,14.94 -12.3,14.94 -5.96,0 -8.94,-2.83 -8.94,-8.5 0,-5.56 3.96,-11.52 11.87,-17.87 7.91,-6.44 20.21,-9.66 36.91,-9.66 12.4,0 22.02,1.95 28.86,5.85 6.83,3.91 11.33,8.35 13.47,13.33 2.25,4.99 3.37,12.6 3.37,22.86 v 48.48 c 0,11.33 0.59,18.61 1.76,21.83 1.17,3.22 3.71,4.83 7.62,4.83 6.44,0 10.45,-4.78 12.01,-14.35 z m -42.48,-51.27 -15.97,6.44 c -25.19,10.26 -37.79,23.15 -37.79,38.68 0,6.15 1.61,11.13 4.83,14.94 3.23,3.71 7.43,5.56 12.6,5.56 4.59,0 9.91,-1.51 15.97,-4.54 6.05,-3.03 12.84,-7.57 20.36,-13.62 z m 71.04,-112.8 c 0,-4.19 1.47,-7.81 4.4,-10.84 3.03,-3.02 6.64,-4.54 10.84,-4.54 4.2,0 7.76,1.52 10.69,4.54 2.93,3.03 4.4,6.65 4.4,10.84 0,4.3 -1.47,7.96 -4.4,10.99 -2.93,3.03 -6.49,4.54 -10.69,4.54 -4.2,0 -7.81,-1.51 -10.84,-4.54 -2.93,-3.03 -4.4,-6.69 -4.4,-10.99 z m 28.28,61.24 v 83.64 c 0,12.79 0.19,20.85 0.58,24.17 0.39,3.32 1.81,5.86 4.25,7.61 2.44,1.76 6.79,2.64 13.04,2.64 h 3.07 v 6.74 h -64.6 v -6.74 h 4.98 c 6.94,0 11.43,-0.97 13.48,-2.93 2.15,-2.05 3.37,-4.44 3.66,-7.18 0.39,-2.83 0.59,-10.93 0.59,-24.31 v -36.33 c 0,-14.06 -0.69,-22.66 -2.05,-25.78 -1.27,-3.13 -3.03,-5.08 -5.28,-5.86 -2.14,-0.78 -5.95,-1.17 -11.42,-1.17 h -3.96 v -6.74 c 17.39,-1.76 30.86,-4.35 40.43,-7.76 z m 76.61,30.61 c 3.32,-8.69 8.69,-15.97 16.11,-21.83 7.52,-5.86 14.84,-8.78 21.97,-8.78 6.45,0 11.53,2 15.24,6 3.71,4.01 5.56,8.11 5.56,12.31 0,2.83 -0.97,5.27 -2.93,7.32 -1.85,2.05 -4.15,3.08 -6.88,3.08 -4.88,0 -8.59,-3.62 -11.13,-10.84 -1.76,-4.89 -4.4,-7.33 -7.91,-7.33 -4.2,0 -9.23,2.88 -15.09,8.64 -5.86,5.67 -9.62,11.58 -11.28,17.73 -1.66,6.15 -2.49,14.6 -2.49,25.34 v 21.39 c 0,12.79 0.15,20.85 0.44,24.17 0.39,3.32 1.8,5.86 4.25,7.61 2.44,1.76 6.78,2.64 13.03,2.64 h 4.1 v 6.74 h -63.72 v -6.74 h 3.08 c 5.86,0 10.01,-0.78 12.45,-2.34 2.54,-1.66 4.05,-3.96 4.54,-6.89 0.49,-2.93 0.73,-11.32 0.73,-25.19 v -33.84 c 0,-12.89 -0.19,-20.95 -0.58,-24.17 -0.29,-3.32 -1.66,-5.86 -4.1,-7.62 -2.44,-1.85 -6.79,-2.78 -13.04,-2.78 h -3.08 v -6.59 c 9.18,-1.08 21.2,-3.96 36.04,-8.64 2.83,7.71 4.39,17.92 4.69,30.61 z m 176.51,14.8 H 2357 c -0.39,5.76 -0.59,10.05 -0.59,12.89 0,21.09 3.27,36.96 9.82,47.6 6.64,10.55 16.5,15.82 29.59,15.82 17.77,0 30.37,-7.96 37.79,-23.87 h 7.03 c -3.12,9.96 -9.33,17.77 -18.6,23.43 -9.28,5.57 -19.39,8.35 -30.33,8.35 -10.15,0 -19.77,-2.54 -28.85,-7.61 -8.99,-5.18 -16.36,-12.45 -22.12,-21.83 -5.76,-9.37 -8.64,-20.75 -8.64,-34.13 0,-18.95 5.56,-34.67 16.69,-47.17 11.14,-12.6 25.05,-18.89 41.75,-18.89 15.73,0 27.88,4.78 36.48,14.35 8.59,9.57 13.13,19.92 13.62,31.06 z m -25.63,-5.86 c 0.29,-2.25 0.44,-4.25 0.44,-6.01 0,-8.59 -2.54,-15.23 -7.62,-19.92 -4.98,-4.79 -11.13,-7.18 -18.46,-7.18 -17.77,0 -28.37,11.04 -31.79,33.11 z"
     fill="#4e7a2a"
     id="path82" />
</svg>
