<svg width="298" height="291" viewBox="0 0 298 291" fill="none" xmlns="http://www.w3.org/2000/svg">
<path d="M169.041 281.26C169.141 280.74 169.461 268.9 167.891 259.79C166.321 250.68 165.591 250.78 163.911 244.92C162.231 239.06 161.501 237.07 159.931 233.61C158.361 230.15 154.801 225.44 152.181 221.36C149.561 217.28 147.051 215.08 144.741 211.83C142.431 208.58 138.351 204.92 136.051 202.2C133.751 199.48 132.071 197.17 130.291 193.72C128.511 190.26 127.881 187.44 127.781 184.4C127.681 181.36 127.991 179.69 128.411 177.07C128.831 174.45 130.301 170.05 131.761 165.03C133.221 160.01 133.961 160.84 133.961 160.84C133.961 160.84 135.111 159.79 136.891 160.11C138.671 160.43 141.501 162 141.501 162C141.501 162 146.531 165.67 151.451 168.81C156.371 171.95 157.111 171.01 161.291 172.48C165.481 173.95 171.131 174.47 175.221 175.31C179.311 176.15 185.801 180.13 191.771 184.32C197.741 188.51 205.361 199.64 205.361 199.64C205.361 199.64 216.281 229.57 221.301 242.45C221.301 242.45 230.871 255.97 231.951 255.91" stroke="white" stroke-width="2" stroke-miterlimit="10"/>
<path d="M177.32 184.28C177.32 184.28 179.05 184.59 178.11 190.25C177.17 195.91 175.91 199.05 174.5 208C173.09 216.95 171.67 219.94 172.46 226.38C173.25 232.82 175.32 235.18 175.32 235.18C175.32 235.18 179.06 237.07 183.77 235.18C188.48 233.29 191.15 233.61 193.82 229.37C196.49 225.13 200.89 214.76 200.89 214.76C200.89 214.76 204.5 206.28 204.5 205.02" stroke="white" stroke-width="2" stroke-miterlimit="10"/>
<path d="M41.9502 55.4C41.9502 55.4 48.1802 72.53 52.5802 83.64C56.9802 94.75 58.0302 98.51 64.9402 103.75C71.8502 108.99 79.3902 116.11 83.1602 120.09C86.9302 124.07 95.5202 134.79 95.5202 134.79C95.5202 134.79 98.0302 140.2 101.8 145.85C105.57 151.51 107.46 154.44 109.55 157.16C111.64 159.88 114.58 161.77 114.79 163.65C115 165.54 115.16 166.74 113.27 167.58C113.27 167.58 112.8 168.42 110.81 167.84C108.82 167.26 101.18 160.03 101.18 160.03C99.5002 157.58 93.8502 150.24 93.8502 150.24C93.8502 150.24 91.7602 146.05 89.2402 145.42C86.7302 144.79 85.8902 143.95 85.0502 146.47C84.2102 148.98 84.0002 150.03 84.8402 156.1C85.6802 162.17 88.2402 176.18 89.9702 180.58C91.7002 184.98 93.5802 189.3 93.9002 190.56C94.2102 191.82 96.8802 195.51 97.5902 196.69C98.3002 197.87 102.77 206.43 103.87 210.04C104.97 213.65 105.76 214.12 105.44 215.38C105.13 216.64 105.05 217.42 104.18 217.74C103.32 218.05 103.32 218.68 101.27 216.8C99.2302 214.91 98.6802 214.68 96.5602 211.69C94.4402 208.7 90.8302 202.26 90.8302 202.26C90.8302 202.26 89.3402 199.04 88.9402 198.49C88.5402 197.94 85.6402 194.56 84.4602 193.31C83.2802 192.06 81.4802 190.01 81.4802 190.01C81.4802 190.01 81.0102 190.01 80.3002 187.81C79.5902 185.61 77.7902 178.62 76.3702 176.03C74.9602 173.44 70.7102 164.8 70.7102 164.8" stroke="white" stroke-width="2" stroke-miterlimit="10"/>
<path d="M87.3008 170.11C87.3008 170.11 93.2208 177.26 94.4708 178.73C94.9008 179.23 95.4808 179.86 96.0708 180.48C97.2108 181.68 98.3508 182.82 98.3508 182.82C98.3508 182.82 99.8208 183.87 103.061 185.44C106.311 187.01 108.921 187.22 112.901 189.84C116.881 192.46 119.291 194.34 119.711 195.18C120.131 196.02 121.071 198.22 119.711 198.74C118.351 199.26 116.911 199.05 114.911 198.32C112.901 197.59 103.371 194.24 102.431 193.5C101.491 192.77 100.441 193.4 98.0308 192.45C95.6208 191.51 93.8908 190.56 93.8908 190.56" stroke="white" stroke-width="2" stroke-miterlimit="10"/>
<path d="M86.4805 165.92C86.4805 165.92 89.7605 167.32 93.5305 169.62C97.3005 171.92 98.9805 172.34 98.9805 172.34C98.9805 172.34 100.48 173.49 103.86 173.81C107.25 174.12 107.88 174.02 110.6 174.75C113.32 175.48 115.21 175.59 116.05 176.95C116.89 178.31 118.67 179.46 118.14 180.82C117.62 182.18 117.62 183.54 113.22 183.23C108.82 182.92 103.59 182.39 100.76 181.87C97.9305 181.35 96.0705 180.47 96.0705 180.47" stroke="white" stroke-width="2" stroke-miterlimit="10"/>
<path d="M85.2207 158.66C85.2207 158.66 86.7207 159.98 89.3407 162.29C91.9607 164.59 93.3207 165.22 93.3207 165.22C93.3207 165.22 98.0307 166.69 100.861 168.26C103.691 169.83 104.731 170.67 105.471 171.4C106.211 172.13 106.371 174.02 106.371 174.02" stroke="white" stroke-width="2" stroke-miterlimit="10"/>
<path d="M23.3604 84.59C23.3604 84.59 25.0404 89.09 32.5804 97.99C40.1204 106.89 44.0004 112.13 48.6104 118.3C53.2204 124.47 58.0404 135.37 58.0404 135.37C58.0404 135.37 64.1104 150.45 65.3704 154.01C66.6304 157.57 66.8403 161.24 68.2003 163.23C69.5603 165.22 72.3604 170.06 74.4604 172.29" stroke="white" stroke-width="2" stroke-miterlimit="10"/>
<path d="M131.761 164.41C131.761 165.43 134.571 165.68 136.741 165.17C138.931 164.66 140.801 162.62 140.801 161.6C140.801 160.58 137.311 159.27 135.061 159.27C132.811 159.27 131.761 163.39 131.761 164.41Z" fill="white"/>
<path d="M77.1199 64.56C79.0899 64.56 80.9099 64.9 82.5999 65.58C84.2899 66.26 85.7599 67.22 87.0299 68.45C88.2899 69.68 89.2799 71.11 89.9999 72.74C90.7199 74.37 91.0699 76.14 91.0699 78.04C91.0699 80.14 90.6399 82.06 89.7799 83.79C88.9199 85.52 87.7699 87.01 86.3399 88.27C85.4199 89.07 84.3799 89.75 83.1999 90.3C82.0299 90.85 80.7999 91.36 79.5299 91.83C78.9299 92.05 78.3399 92.3 77.7699 92.58C77.1999 92.86 76.6799 93.18 76.2099 93.54V93.67C76.5699 93.62 76.9599 93.6 77.3799 93.6C78.3899 93.6 79.3199 93.73 80.1999 93.99C81.0699 94.25 81.9199 94.54 82.7499 94.86C83.5799 95.18 84.3999 95.47 85.2299 95.73C86.0599 95.99 86.9299 96.12 87.8499 96.12C88.8999 96.12 89.6899 95.9 90.2299 95.45C90.7699 95 91.1999 94.23 91.5399 93.14H92.3799C92.4199 93.34 92.4599 93.56 92.4799 93.81C92.4999 94.06 92.5099 94.3 92.5099 94.55C92.5099 95.49 92.2499 96.33 91.7399 97.06C91.2299 97.8 90.5299 98.38 89.6399 98.8C88.7599 99.22 87.7599 99.44 86.6399 99.44C85.6599 99.44 84.7199 99.28 83.8399 98.97C82.9599 98.66 82.1199 98.27 81.3299 97.81C80.5399 97.35 79.7699 96.9 79.0299 96.45C78.2899 96 77.5799 95.62 76.8799 95.31C76.1899 95 75.5099 94.84 74.8299 94.84C74.2499 94.84 73.7699 94.95 73.3999 95.18C73.0299 95.4 72.7099 95.65 72.4399 95.93C72.1699 96.21 71.8999 96.46 71.6399 96.68C71.3699 96.9 71.0499 97.02 70.6699 97.02C70.0199 97.02 69.6999 96.74 69.6999 96.18C69.6999 95.98 69.7399 95.8 69.8299 95.64C69.9199 95.48 70.1199 95.29 70.4299 95.07C70.7399 94.85 71.2299 94.54 71.9099 94.16L76.2699 91.68C74.3899 91.61 72.6499 91.22 71.0599 90.51C69.4599 89.79 68.0699 88.82 66.8899 87.58C65.6999 86.34 64.7899 84.91 64.1399 83.29C63.4899 81.67 63.1699 79.94 63.1699 78.11C63.1699 76.19 63.5299 74.4 64.2399 72.76C64.9599 71.12 65.9399 69.68 67.2099 68.45C68.4699 67.22 69.9499 66.27 71.6399 65.58C73.3299 64.9 75.1499 64.56 77.1199 64.56ZM77.1199 90.04C79.0899 90.04 80.7899 89.55 82.2199 88.58C83.6499 87.61 84.7599 86.23 85.5399 84.44C86.3199 82.65 86.7099 80.54 86.7099 78.1C86.7099 75.71 86.3199 73.63 85.5399 71.88C84.7599 70.13 83.6499 68.77 82.2199 67.82C80.7899 66.87 79.0899 66.39 77.1199 66.39C75.1499 66.39 73.4499 66.87 72.0199 67.82C70.5899 68.77 69.4799 70.12 68.6999 71.88C67.9199 73.64 67.5299 75.71 67.5299 78.1C67.5299 80.54 67.9199 82.65 68.6999 84.44C69.4799 86.23 70.5899 87.61 72.0199 88.58C73.4499 89.55 75.1499 90.04 77.1199 90.04Z" fill="white"/>
<path d="M108.54 81.59V78.3C108.54 77.07 108.49 76.18 108.39 75.62C108.29 75.06 108.04 74.69 107.65 74.51C107.26 74.33 106.63 74.2 105.76 74.11V72.94H111.83V83.23C111.83 85.71 111.9 87.35 112.03 88.16C112.14 88.72 112.37 89.08 112.7 89.25C113.04 89.42 113.72 89.5 114.75 89.5V90.67L109.22 91.07L108.85 87.05H108.72C107.87 88.41 106.89 89.42 105.79 90.07C104.68 90.72 103.53 91.04 102.32 91.04C101.38 91.04 100.47 90.86 99.5902 90.5C98.7102 90.14 98.0402 89.66 97.5902 89.06C96.8702 88.12 96.5202 86.31 96.5202 83.63V78.3C96.5202 77.07 96.4702 76.18 96.3702 75.62C96.2702 75.06 96.0202 74.69 95.6302 74.5C95.2402 74.31 94.6102 74.18 93.7402 74.11V72.94H99.8102V82.09C99.8102 84.5 100.1 86.26 100.68 87.37C101.26 88.48 102.17 89.03 103.4 89.03C105.37 89.03 106.9 87.74 107.99 85.17C108.21 84.66 108.36 84.17 108.44 83.71C108.5 83.26 108.54 82.55 108.54 81.59Z" fill="white"/>
<path d="M131.95 86.65L132.99 87.59C131.09 89.89 128.73 91.04 125.91 91.04C124.17 91.04 122.63 90.66 121.32 89.9C120 89.14 118.97 88.08 118.24 86.73C117.5 85.38 117.13 83.81 117.13 82.02C117.13 80.19 117.52 78.56 118.3 77.14C119.08 75.72 120.16 74.61 121.54 73.8C122.91 73 124.51 72.59 126.32 72.59C128.47 72.59 130.14 73.18 131.33 74.35C132.53 75.52 133.12 77.21 133.12 79.4C133.12 79.69 133.06 79.88 132.94 79.95C132.82 80.03 132.53 80.07 132.08 80.07H121.05C121 80.25 120.97 80.47 120.95 80.72C120.93 80.98 120.92 81.26 120.92 81.58C120.92 83.12 121.17 84.48 121.66 85.64C122.15 86.8 122.84 87.7 123.74 88.34C124.63 88.98 125.67 89.3 126.86 89.3C127.78 89.3 128.65 89.09 129.48 88.66C130.29 88.24 131.12 87.57 131.95 86.65ZM121.28 78.54H127.45C128.37 78.54 128.93 78.48 129.14 78.37C129.35 78.26 129.46 78 129.46 77.6C129.46 76.57 129.12 75.75 128.45 75.14C127.78 74.53 126.88 74.22 125.77 74.22C123.36 74.21 121.86 75.66 121.28 78.54Z" fill="white"/>
<path d="M142.14 84.24V85.38C142.14 86.61 142.19 87.51 142.29 88.08C142.39 88.65 142.64 89.02 143.03 89.19C143.42 89.36 144.04 89.48 144.89 89.54V90.71H135.97V89.54C136.84 89.5 137.48 89.38 137.88 89.2C138.28 89.02 138.54 88.66 138.67 88.11C138.79 87.56 138.85 86.73 138.85 85.61V81.69C138.85 80.17 138.83 78.98 138.78 78.12C138.73 77.26 138.62 76.64 138.44 76.26C138.26 75.88 137.97 75.65 137.57 75.56C137.17 75.47 136.61 75.43 135.89 75.43V74.26L141.76 72.99L142.23 77.15H142.36C142.96 75.81 143.8 74.72 144.87 73.88C145.94 73.04 147.05 72.62 148.19 72.62C148.91 72.62 149.47 72.79 149.88 73.14C150.29 73.49 150.5 73.95 150.5 74.53C150.5 75.67 149.85 76.24 148.56 76.24C148.09 76.24 147.71 76.17 147.42 76.02C147.13 75.87 146.87 75.73 146.65 75.6C146.43 75.47 146.18 75.4 145.91 75.4C145.31 75.4 144.7 75.79 144.1 76.56C143.5 77.33 143.03 78.31 142.69 79.49C142.33 80.8 142.14 82.38 142.14 84.24Z" fill="white"/>
<path d="M166.28 86.96L167.29 87.93C166.49 88.89 165.45 89.65 164.17 90.21C162.9 90.77 161.52 91.05 160.05 91.05C158.46 91.05 157.06 90.67 155.84 89.91C154.62 89.15 153.67 88.09 152.99 86.72C152.31 85.36 151.97 83.77 151.97 81.96C151.97 80.06 152.36 78.41 153.14 77.01C153.92 75.61 155.01 74.53 156.41 73.76C157.81 72.99 159.43 72.6 161.29 72.6C163.01 72.6 164.43 72.87 165.53 73.42C166.64 73.97 167.19 74.68 167.19 75.55C167.19 75.97 167.04 76.32 166.75 76.57C166.46 76.83 166.06 76.96 165.54 76.96C165.14 76.96 164.8 76.87 164.53 76.69C164.26 76.51 163.91 76.14 163.49 75.58C163.07 75.07 162.64 74.7 162.22 74.49C161.8 74.28 161.26 74.17 160.61 74.17C159.04 74.17 157.85 74.79 157.02 76.01C156.19 77.24 155.78 79.05 155.78 81.44C155.78 83.99 156.24 85.93 157.15 87.27C158.07 88.61 159.39 89.28 161.11 89.28C162.03 89.28 162.91 89.1 163.76 88.73C164.62 88.38 165.46 87.78 166.28 86.96Z" fill="white"/>
<path d="M185.03 79.71L177.72 95.97C176.69 98.27 175.09 99.42 172.92 99.42C171.51 99.42 170.81 98.89 170.81 97.84C170.81 97.28 171.01 96.87 171.4 96.6C171.79 96.33 172.51 96.12 173.56 95.96C174.48 95.8 175.17 95.55 175.66 95.19C176.14 94.83 176.59 94.24 177.02 93.41L178.19 91.06L171.75 77.08C171.37 76.25 171.04 75.63 170.76 75.22C170.48 74.81 170.17 74.53 169.84 74.38C169.5 74.23 169.04 74.14 168.43 74.09V72.92H177.32V74.09C175.82 74.09 175.07 74.46 175.07 75.2C175.07 75.49 175.16 75.95 175.34 76.57C175.52 77.2 175.74 77.83 176.01 78.48L179.7 87.4H179.87L182.92 79.86C183.32 78.88 183.62 78.12 183.83 77.6C184.03 77.08 184.17 76.67 184.23 76.38C184.3 76.09 184.33 75.82 184.33 75.58C184.33 75 184.17 74.61 183.84 74.41C183.52 74.21 182.9 74.11 181.98 74.11V72.94H189.36V74.11C188.93 74.11 188.57 74.17 188.27 74.29C187.97 74.41 187.67 74.66 187.38 75.03C187.09 75.4 186.76 75.96 186.39 76.71C186.02 77.46 185.56 78.46 185.03 79.71Z" fill="white"/>
<path d="M96.97 110.73L102.94 125.82L108.84 111.27C109.18 110.44 109.41 109.79 109.54 109.31C109.67 108.83 109.74 108.41 109.74 108.05C109.74 107.45 109.55 107.02 109.17 106.78C108.79 106.53 108.11 106.41 107.12 106.41V105.14H115.27V106.41C114.24 106.52 113.47 106.77 112.96 107.15C112.45 107.53 112 108.19 111.62 109.13L102.53 131.29H101.36L92.71 110.4C92.15 109.04 91.57 108.05 90.97 107.45C90.37 106.85 89.47 106.51 88.29 106.44V105.13H99.22V106.44C97.99 106.44 97.17 106.56 96.77 106.79C96.37 107.02 96.17 107.38 96.17 107.85C96.17 108.16 96.23 108.53 96.35 108.94C96.47 109.35 96.68 109.95 96.97 110.73Z" fill="white"/>
<path d="M128.66 126.89L129.7 127.83C127.8 130.13 125.44 131.28 122.62 131.28C120.88 131.28 119.34 130.9 118.03 130.14C116.71 129.38 115.68 128.32 114.95 126.97C114.21 125.62 113.84 124.05 113.84 122.26C113.84 120.43 114.23 118.8 115.01 117.38C115.79 115.96 116.87 114.85 118.25 114.04C119.62 113.24 121.22 112.83 123.03 112.83C125.18 112.83 126.85 113.42 128.04 114.59C129.24 115.76 129.83 117.45 129.83 119.64C129.83 119.93 129.77 120.12 129.65 120.19C129.53 120.27 129.24 120.31 128.79 120.31H117.76C117.71 120.49 117.68 120.71 117.66 120.96C117.64 121.22 117.63 121.5 117.63 121.82C117.63 123.36 117.88 124.72 118.37 125.88C118.86 127.04 119.55 127.94 120.45 128.58C121.34 129.22 122.38 129.54 123.57 129.54C124.49 129.54 125.36 129.33 126.19 128.9C127 128.48 127.83 127.81 128.66 126.89ZM118 118.78H124.17C125.09 118.78 125.65 118.72 125.86 118.61C126.07 118.5 126.18 118.24 126.18 117.84C126.18 116.81 125.84 115.99 125.17 115.38C124.5 114.77 123.6 114.46 122.49 114.46C120.07 114.45 118.58 115.89 118 118.78ZM122.12 109.12H120.54L124.9 105.13C125.7 104.39 126.45 104.02 127.15 104.02C127.53 104.02 127.84 104.12 128.07 104.32C128.3 104.52 128.42 104.81 128.42 105.19C128.42 105.55 128.27 105.87 127.97 106.15C127.67 106.43 127.25 106.69 126.71 106.94L122.12 109.12Z" fill="white"/>
<path d="M134.76 115.29H132.75V114.05C133.93 113.33 134.86 112.64 135.53 111.95C136.2 111.27 136.71 110.45 137.07 109.49H138.04V113.72H142.53V115.3H138.04V125.49C138.04 127.06 138.2 128.14 138.53 128.74C138.85 129.34 139.46 129.65 140.36 129.65C140.92 129.65 141.4 129.53 141.8 129.3C142.2 129.07 142.58 128.67 142.94 128.11L143.78 128.75C143.13 130.45 141.63 131.3 139.29 131.3C137.81 131.3 136.69 130.94 135.92 130.23C135.15 129.51 134.76 128.51 134.76 127.21V115.29Z" fill="white"/>
<path d="M160.549 126.89L161.589 127.83C159.689 130.13 157.329 131.28 154.509 131.28C152.769 131.28 151.229 130.9 149.919 130.14C148.599 129.38 147.569 128.32 146.839 126.97C146.099 125.62 145.729 124.05 145.729 122.26C145.729 120.43 146.119 118.8 146.899 117.38C147.679 115.96 148.759 114.85 150.139 114.04C151.509 113.24 153.109 112.83 154.919 112.83C157.069 112.83 158.739 113.42 159.929 114.59C161.129 115.76 161.719 117.45 161.719 119.64C161.719 119.93 161.659 120.12 161.539 120.19C161.419 120.27 161.129 120.31 160.679 120.31H149.649C149.599 120.49 149.569 120.71 149.549 120.96C149.529 121.22 149.52 121.5 149.52 121.82C149.52 123.36 149.769 124.72 150.259 125.88C150.749 127.04 151.439 127.94 152.339 128.58C153.229 129.22 154.27 129.54 155.46 129.54C156.38 129.54 157.249 129.33 158.079 128.9C158.889 128.48 159.719 127.81 160.549 126.89ZM149.88 118.78H156.049C156.969 118.78 157.53 118.72 157.74 118.61C157.95 118.5 158.059 118.24 158.059 117.84C158.059 116.81 157.719 115.99 157.049 115.38C156.379 114.77 155.479 114.46 154.369 114.46C151.959 114.45 150.47 115.89 149.88 118.78ZM154.009 109.12H152.429L156.789 105.13C157.589 104.39 158.339 104.02 159.039 104.02C159.419 104.02 159.73 104.12 159.96 104.32C160.19 104.52 160.309 104.81 160.309 105.19C160.309 105.55 160.159 105.87 159.859 106.15C159.559 106.43 159.14 106.69 158.6 106.94L154.009 109.12Z" fill="white"/>
<path d="M170.74 124.48V125.62C170.74 126.85 170.79 127.75 170.89 128.32C170.99 128.89 171.24 129.26 171.63 129.43C172.02 129.6 172.64 129.72 173.49 129.78V130.95H164.57V129.78C165.44 129.74 166.08 129.62 166.48 129.44C166.88 129.26 167.14 128.9 167.27 128.35C167.39 127.8 167.45 126.97 167.45 125.85V121.93C167.45 120.41 167.43 119.22 167.38 118.36C167.34 117.5 167.22 116.88 167.04 116.5C166.86 116.12 166.57 115.89 166.17 115.8C165.77 115.71 165.21 115.67 164.49 115.67V114.5L170.36 113.23L170.83 117.39H170.96C171.56 116.05 172.4 114.96 173.47 114.12C174.54 113.28 175.65 112.86 176.79 112.86C177.51 112.86 178.07 113.03 178.48 113.38C178.89 113.73 179.1 114.19 179.1 114.77C179.1 115.91 178.45 116.48 177.16 116.48C176.69 116.48 176.31 116.41 176.02 116.26C175.73 116.11 175.47 115.97 175.25 115.84C175.03 115.71 174.78 115.64 174.51 115.64C173.91 115.64 173.3 116.03 172.7 116.8C172.1 117.57 171.63 118.55 171.29 119.73C170.93 121.04 170.74 122.62 170.74 124.48Z" fill="white"/>
<path d="M186.94 112.84V125.62C186.94 126.76 187.02 127.63 187.17 128.22C187.33 128.81 187.63 129.21 188.08 129.41C188.53 129.61 189.19 129.73 190.06 129.78V130.95H180.44V129.78C181.36 129.74 182.04 129.61 182.5 129.39C182.96 129.18 183.27 128.8 183.42 128.25C183.58 127.7 183.65 126.9 183.65 125.85V121.56C183.65 120.26 183.63 119.19 183.6 118.34C183.57 117.49 183.5 116.92 183.42 116.63C183.33 116.12 183.08 115.76 182.67 115.57C182.26 115.38 181.49 115.28 180.37 115.28V114.11L186.94 112.84ZM183.08 106.04C183.08 105.46 183.28 104.97 183.68 104.56C184.08 104.16 184.57 103.96 185.16 103.96C185.74 103.96 186.23 104.16 186.64 104.56C187.04 104.96 187.24 105.45 187.24 106.04C187.24 106.62 187.04 107.11 186.64 107.52C186.24 107.92 185.75 108.12 185.16 108.12C184.58 108.12 184.09 107.92 183.68 107.52C183.28 107.11 183.08 106.62 183.08 106.04Z" fill="white"/>
<path d="M197.97 121.19V125.68C197.97 126.89 198.02 127.77 198.12 128.33C198.22 128.89 198.47 129.26 198.87 129.44C199.27 129.62 199.9 129.74 200.75 129.81V130.95H191.96V129.81C192.79 129.74 193.4 129.63 193.8 129.46C194.2 129.29 194.46 128.94 194.59 128.4C194.71 127.86 194.77 127.04 194.77 125.92V121.46C194.77 118.78 194.7 117.16 194.57 116.6C194.44 116 194.2 115.61 193.87 115.44C193.53 115.27 192.87 115.19 191.89 115.19V114.12L197.26 112.85L197.66 116.17H197.79C198.64 115.12 199.64 114.3 200.79 113.72C201.94 113.14 203.18 112.85 204.5 112.85C205.53 112.85 206.47 113.02 207.32 113.35C208.17 113.69 208.82 114.14 209.26 114.72C209.64 115.23 209.91 115.9 210.06 116.72C210.22 117.54 210.29 118.66 210.29 120.09V125.69C210.29 126.9 210.35 127.78 210.46 128.34C210.57 128.9 210.82 129.27 211.21 129.45C211.6 129.63 212.2 129.75 213 129.82V130.96H204.32V129.82C205.17 129.78 205.79 129.66 206.18 129.48C206.57 129.3 206.82 128.94 206.93 128.39C207.04 127.84 207.1 127.02 207.1 125.93V121.5C207.1 118.97 206.81 117.2 206.23 116.19C205.65 115.17 204.66 114.66 203.28 114.66C202.3 114.66 201.38 114.92 200.53 115.45C199.68 115.98 199.02 116.7 198.55 117.61C198.39 117.9 198.27 118.19 198.18 118.47C198.09 118.75 198.03 119.1 198 119.51C197.99 119.91 197.97 120.48 197.97 121.19Z" fill="white"/>
<path d="M220.7 121.7L225.53 119.59V118.22C225.53 116.81 225.24 115.78 224.67 115.12C224.1 114.46 223.2 114.13 221.97 114.13C221.25 114.13 220.73 114.28 220.41 114.57C220.09 114.86 219.78 115.44 219.49 116.31C219.24 116.94 219 117.36 218.77 117.58C218.54 117.8 218.19 117.92 217.75 117.92C216.63 117.92 216.07 117.36 216.07 116.24C216.07 115.17 216.64 114.33 217.78 113.74C218.92 113.15 220.54 112.85 222.64 112.85C224.9 112.85 226.49 113.24 227.42 114.02C228.35 114.8 228.81 116.16 228.81 118.08V125.59C228.81 126.98 228.94 127.96 229.21 128.54C229.48 129.12 229.9 129.41 230.48 129.41C230.7 129.41 230.97 129.36 231.27 129.26C231.57 129.16 231.8 128.96 231.96 128.67L232.43 129.47C232.16 129.98 231.67 130.41 230.95 130.76C230.23 131.11 229.49 131.28 228.7 131.28C227.74 131.28 227.01 130.97 226.52 130.34C226.03 129.71 225.78 128.83 225.78 127.69H225.61C225.01 128.79 224.19 129.65 223.16 130.29C222.13 130.93 220.99 131.25 219.74 131.25C218.38 131.25 217.29 130.89 216.47 130.16C215.65 129.43 215.25 128.47 215.25 127.26C215.25 126.21 215.64 125.24 216.42 124.36C217.23 123.48 218.65 122.59 220.7 121.7ZM225.53 123.67V121.02C222.96 121.98 221.17 122.93 220.16 123.85C219.15 124.78 218.65 125.72 218.65 126.68C218.65 127.44 218.9 128.05 219.39 128.52C219.88 128.99 220.51 129.22 221.27 129.22C222.07 129.22 222.8 128.97 223.45 128.47C224.1 127.97 224.61 127.29 224.98 126.44C225.35 125.61 225.53 124.68 225.53 123.67Z" fill="white"/>
<path d="M240.049 112.84V125.62C240.049 126.76 240.129 127.63 240.279 128.22C240.439 128.81 240.739 129.21 241.189 129.41C241.639 129.61 242.299 129.73 243.169 129.78V130.95H233.549V129.78C234.469 129.74 235.149 129.61 235.609 129.39C236.069 129.18 236.379 128.8 236.529 128.25C236.689 127.7 236.759 126.9 236.759 125.85V121.56C236.759 120.26 236.74 119.19 236.71 118.34C236.68 117.49 236.609 116.92 236.529 116.63C236.439 116.12 236.189 115.76 235.779 115.57C235.369 115.38 234.599 115.28 233.479 115.28V114.11L240.049 112.84ZM236.199 106.04C236.199 105.46 236.399 104.97 236.799 104.56C237.199 104.16 237.689 103.96 238.279 103.96C238.859 103.96 239.349 104.16 239.759 104.56C240.159 104.96 240.359 105.45 240.359 106.04C240.359 106.62 240.159 107.11 239.759 107.52C239.359 107.92 238.869 108.12 238.279 108.12C237.699 108.12 237.209 107.92 236.799 107.52C236.399 107.11 236.199 106.62 236.199 106.04Z" fill="white"/>
<path d="M251.28 124.48V125.62C251.28 126.85 251.33 127.75 251.43 128.32C251.53 128.89 251.78 129.26 252.17 129.43C252.56 129.6 253.18 129.72 254.03 129.78V130.95H245.11V129.78C245.98 129.74 246.62 129.62 247.02 129.44C247.42 129.26 247.68 128.9 247.81 128.35C247.93 127.8 247.99 126.97 247.99 125.85V121.93C247.99 120.41 247.97 119.22 247.92 118.36C247.88 117.5 247.76 116.88 247.58 116.5C247.4 116.12 247.11 115.89 246.71 115.8C246.31 115.71 245.75 115.67 245.03 115.67V114.5L250.9 113.23L251.37 117.39H251.5C252.1 116.05 252.94 114.96 254.01 114.12C255.08 113.28 256.19 112.86 257.33 112.86C258.05 112.86 258.61 113.03 259.02 113.38C259.43 113.73 259.64 114.19 259.64 114.77C259.64 115.91 258.99 116.48 257.7 116.48C257.23 116.48 256.85 116.41 256.56 116.26C256.27 116.11 256.01 115.97 255.79 115.84C255.57 115.71 255.32 115.64 255.05 115.64C254.45 115.64 253.84 116.03 253.24 116.8C252.64 117.57 252.17 118.55 251.83 119.73C251.47 121.04 251.28 122.62 251.28 124.48Z" fill="white"/>
<path d="M275.93 126.89L276.97 127.83C275.07 130.13 272.71 131.28 269.89 131.28C268.15 131.28 266.61 130.9 265.3 130.14C263.98 129.38 262.95 128.32 262.22 126.97C261.48 125.62 261.11 124.05 261.11 122.26C261.11 120.43 261.5 118.8 262.28 117.38C263.06 115.96 264.14 114.85 265.52 114.04C266.89 113.24 268.49 112.83 270.3 112.83C272.45 112.83 274.12 113.42 275.31 114.59C276.51 115.76 277.1 117.45 277.1 119.64C277.1 119.93 277.04 120.12 276.92 120.19C276.8 120.27 276.51 120.31 276.06 120.31H265.03C264.98 120.49 264.95 120.71 264.93 120.96C264.91 121.22 264.9 121.5 264.9 121.82C264.9 123.36 265.15 124.72 265.64 125.88C266.13 127.04 266.82 127.94 267.72 128.58C268.61 129.22 269.65 129.54 270.84 129.54C271.76 129.54 272.63 129.33 273.46 128.9C274.28 128.48 275.1 127.81 275.93 126.89ZM265.27 118.78H271.44C272.36 118.78 272.92 118.72 273.13 118.61C273.34 118.5 273.45 118.24 273.45 117.84C273.45 116.81 273.11 115.99 272.44 115.38C271.77 114.77 270.87 114.46 269.76 114.46C267.35 114.45 265.85 115.89 265.27 118.78Z" fill="white"/>
<path d="M288.27 144.07C288.27 67.24 225.99 4.95999 149.16 4.95999C72.33 4.95999 10.04 67.24 10.04 144.07C10.04 220.9 72.32 283.18 149.15 283.18C180.17 283.18 208.81 273.03 231.94 255.87C266.12 230.52 288.27 189.88 288.27 144.07Z" stroke="white" stroke-width="3" stroke-miterlimit="10"/>
</svg>
